<svg id="container" width="1666.015625" xmlns="http://www.w3.org/2000/svg" class="flowchart" height="743" viewBox="0 0 1666.015625 743" role="graphics-document document" aria-roledescription="flowchart-v2"><style>#container{font-family:"trebuchet ms",verdana,arial,sans-serif;font-size:16px;fill:#333;}@keyframes edge-animation-frame{from{stroke-dashoffset:0;}}@keyframes dash{to{stroke-dashoffset:0;}}#container .edge-animation-slow{stroke-dasharray:9,5!important;stroke-dashoffset:900;animation:dash 50s linear infinite;stroke-linecap:round;}#container .edge-animation-fast{stroke-dasharray:9,5!important;stroke-dashoffset:900;animation:dash 20s linear infinite;stroke-linecap:round;}#container .error-icon{fill:#552222;}#container .error-text{fill:#552222;stroke:#552222;}#container .edge-thickness-normal{stroke-width:1px;}#container .edge-thickness-thick{stroke-width:3.5px;}#container .edge-pattern-solid{stroke-dasharray:0;}#container .edge-thickness-invisible{stroke-width:0;fill:none;}#container .edge-pattern-dashed{stroke-dasharray:3;}#container .edge-pattern-dotted{stroke-dasharray:2;}#container .marker{fill:#333333;stroke:#333333;}#container .marker.cross{stroke:#333333;}#container svg{font-family:"trebuchet ms",verdana,arial,sans-serif;font-size:16px;}#container p{margin:0;}#container .label{font-family:"trebuchet ms",verdana,arial,sans-serif;color:#333;}#container .cluster-label text{fill:#333;}#container .cluster-label span{color:#333;}#container .cluster-label span p{background-color:transparent;}#container .label text,#container span{fill:#333;color:#333;}#container .node rect,#container .node circle,#container .node ellipse,#container .node polygon,#container .node path{fill:#ECECFF;stroke:#9370DB;stroke-width:1px;}#container .rough-node .label text,#container .node .label text,#container .image-shape .label,#container .icon-shape .label{text-anchor:middle;}#container .node .katex path{fill:#000;stroke:#000;stroke-width:1px;}#container .rough-node .label,#container .node .label,#container .image-shape .label,#container .icon-shape .label{text-align:center;}#container .node.clickable{cursor:pointer;}#container .root .anchor path{fill:#333333!important;stroke-width:0;stroke:#333333;}#container .arrowheadPath{fill:#333333;}#container .edgePath .path{stroke:#333333;stroke-width:1px;}#container .flowchart-link{stroke:#333333;fill:none;}#container .edgeLabel{background-color:rgba(232,232,232, 0.8);text-align:center;}#container .edgeLabel p{background-color:rgba(232,232,232, 0.8);}#container .edgeLabel rect{opacity:0.5;background-color:rgba(232,232,232, 0.8);fill:rgba(232,232,232, 0.8);}#container .labelBkg{background-color:rgba(232, 232, 232, 0.5);}#container .cluster rect{fill:#ffffde;stroke:#aaaa33;stroke-width:1px;}#container .cluster text{fill:#333;}#container .cluster span{color:#333;}#container div.mermaidTooltip{position:absolute;text-align:center;max-width:200px;padding:2px;font-family:"trebuchet ms",verdana,arial,sans-serif;font-size:12px;background:hsl(80, 100%, 96.2745098039%);border:1px solid #aaaa33;border-radius:2px;pointer-events:none;z-index:100;}#container .flowchartTitleText{text-anchor:middle;font-size:18px;fill:#333;}#container rect.text{fill:none;stroke-width:0;}#container .icon-shape,#container .image-shape{background-color:rgba(232,232,232, 0.8);text-align:center;}#container .icon-shape p,#container .image-shape p{background-color:rgba(232,232,232, 0.8);padding:2px;}#container .icon-shape .label rect,#container .image-shape .label rect{opacity:0.5;background-color:rgba(232,232,232, 0.8);fill:rgba(232,232,232, 0.8);}#container .label-icon{display:inline-block;height:1em;overflow:visible;vertical-align:-0.125em;}#container .node .label-icon path{fill:currentColor;stroke:revert;stroke-width:revert;}#container .node .neo-node{stroke:#9370DB;}#container [data-look="neo"].node rect,#container [data-look="neo"].cluster rect,#container [data-look="neo"].node polygon{stroke:#9370DB;filter:drop-shadow(1px 2px 2px rgba(185, 185, 185, 1));}#container [data-look="neo"].node path{stroke:#9370DB;stroke-width:1px;}#container [data-look="neo"].node .outer-path{filter:drop-shadow(1px 2px 2px rgba(185, 185, 185, 1));}#container [data-look="neo"].node .neo-line path{stroke:#9370DB;filter:none;}#container [data-look="neo"].node circle{stroke:#9370DB;filter:drop-shadow(1px 2px 2px rgba(185, 185, 185, 1));}#container [data-look="neo"].node circle .state-start{fill:#000000;}#container [data-look="neo"].icon-shape .icon{fill:#9370DB;filter:drop-shadow(1px 2px 2px rgba(185, 185, 185, 1));}#container [data-look="neo"].icon-shape .icon-neo path{stroke:#9370DB;filter:drop-shadow(1px 2px 2px rgba(185, 185, 185, 1));}#container :root{--mermaid-font-family:"trebuchet ms",verdana,arial,sans-serif;}#container .risk&gt;*{fill:rgb(255, 241, 242)!important;stroke:rgb(225, 29, 72)!important;color:rgb(127, 29, 29)!important;stroke-width:2px!important;}#container .risk span{fill:rgb(255, 241, 242)!important;stroke:rgb(225, 29, 72)!important;color:rgb(127, 29, 29)!important;stroke-width:2px!important;}#container .risk tspan{fill:rgb(127, 29, 29)!important;}#container .control&gt;*{fill:rgb(236, 253, 245)!important;stroke:rgb(5, 150, 105)!important;color:rgb(6, 78, 59)!important;stroke-width:2px!important;}#container .control span{fill:rgb(236, 253, 245)!important;stroke:rgb(5, 150, 105)!important;color:rgb(6, 78, 59)!important;stroke-width:2px!important;}#container .control tspan{fill:rgb(6, 78, 59)!important;}#container .open&gt;*{fill:rgb(255, 251, 235)!important;stroke:rgb(217, 119, 6)!important;color:rgb(120, 53, 15)!important;stroke-width:2px!important;}#container .open span{fill:rgb(255, 251, 235)!important;stroke:rgb(217, 119, 6)!important;color:rgb(120, 53, 15)!important;stroke-width:2px!important;}#container .open tspan{fill:rgb(120, 53, 15)!important;}</style><g><marker id="container_flowchart-v2-pointEnd" class="marker flowchart-v2" viewBox="0 0 10 10" refX="5" refY="5" markerUnits="userSpaceOnUse" markerWidth="8" markerHeight="8" orient="auto"><path d="M 0 0 L 10 5 L 0 10 z" class="arrowMarkerPath" style="stroke-width: 1; stroke-dasharray: 1, 0;"></path></marker><marker id="container_flowchart-v2-pointStart" class="marker flowchart-v2" viewBox="0 0 10 10" refX="4.5" refY="5" markerUnits="userSpaceOnUse" markerWidth="8" markerHeight="8" orient="auto"><path d="M 0 5 L 10 10 L 10 0 z" class="arrowMarkerPath" style="stroke-width: 1; stroke-dasharray: 1, 0;"></path></marker><marker id="container_flowchart-v2-pointEnd-margin" class="marker flowchart-v2" viewBox="0 0 11.5 14" refX="11.5" refY="7" markerUnits="userSpaceOnUse" markerWidth="10.5" markerHeight="14" orient="auto"><path d="M 0 0 L 11.5 7 L 0 14 z" class="arrowMarkerPath" style="stroke-width: 0; stroke-dasharray: 1, 0;"></path></marker><marker id="container_flowchart-v2-pointStart-margin" class="marker flowchart-v2" viewBox="0 0 11.5 14" refX="1" refY="7" markerUnits="userSpaceOnUse" markerWidth="11.5" markerHeight="14" orient="auto"><polygon points="0,7 11.5,14 11.5,0" class="arrowMarkerPath" style="stroke-width: 0; stroke-dasharray: 1, 0;"></polygon></marker><marker id="container_flowchart-v2-circleEnd" class="marker flowchart-v2" viewBox="0 0 10 10" refX="11" refY="5" markerUnits="userSpaceOnUse" markerWidth="11" markerHeight="11" orient="auto"><circle cx="5" cy="5" r="5" class="arrowMarkerPath" style="stroke-width: 1; stroke-dasharray: 1, 0;"></circle></marker><marker id="container_flowchart-v2-circleStart" class="marker flowchart-v2" viewBox="0 0 10 10" refX="-1" refY="5" markerUnits="userSpaceOnUse" markerWidth="11" markerHeight="11" orient="auto"><circle cx="5" cy="5" r="5" class="arrowMarkerPath" style="stroke-width: 1; stroke-dasharray: 1, 0;"></circle></marker><marker id="container_flowchart-v2-circleEnd-margin" class="marker flowchart-v2" viewBox="0 0 10 10" refY="5" refX="12.25" markerUnits="userSpaceOnUse" markerWidth="14" markerHeight="14" orient="auto"><circle cx="5" cy="5" r="5" class="arrowMarkerPath" style="stroke-width: 0; stroke-dasharray: 1, 0;"></circle></marker><marker id="container_flowchart-v2-circleStart-margin" class="marker flowchart-v2" viewBox="0 0 10 10" refX="-2" refY="5" markerUnits="userSpaceOnUse" markerWidth="14" markerHeight="14" orient="auto"><circle cx="5" cy="5" r="5" class="arrowMarkerPath" style="stroke-width: 0; stroke-dasharray: 1, 0;"></circle></marker><marker id="container_flowchart-v2-crossEnd" class="marker cross flowchart-v2" viewBox="0 0 11 11" refX="12" refY="5.2" markerUnits="userSpaceOnUse" markerWidth="11" markerHeight="11" orient="auto"><path d="M 1,1 l 9,9 M 10,1 l -9,9" class="arrowMarkerPath" style="stroke-width: 2; stroke-dasharray: 1, 0;"></path></marker><marker id="container_flowchart-v2-crossStart" class="marker cross flowchart-v2" viewBox="0 0 11 11" refX="-1" refY="5.2" markerUnits="userSpaceOnUse" markerWidth="11" markerHeight="11" orient="auto"><path d="M 1,1 l 9,9 M 10,1 l -9,9" class="arrowMarkerPath" style="stroke-width: 2; stroke-dasharray: 1, 0;"></path></marker><marker id="container_flowchart-v2-crossEnd-margin" class="marker cross flowchart-v2" viewBox="0 0 15 15" refX="17.7" refY="7.5" markerUnits="userSpaceOnUse" markerWidth="12" markerHeight="12" orient="auto"><path d="M 1,1 L 14,14 M 1,14 L 14,1" class="arrowMarkerPath" style="stroke-width: 2.5;"></path></marker><marker id="container_flowchart-v2-crossStart-margin" class="marker cross flowchart-v2" viewBox="0 0 15 15" refX="-3.5" refY="7.5" markerUnits="userSpaceOnUse" markerWidth="12" markerHeight="12" orient="auto"><path d="M 1,1 L 14,14 M 1,14 L 14,1" class="arrowMarkerPath" style="stroke-width: 2.5; stroke-dasharray: 1, 0;"></path></marker><g class="root"><g class="clusters"></g><g class="edgePaths"><path d="M730.829,47.203L632.024,55.336C533.219,63.468,335.61,79.734,236.805,91.367C138,103,138,110,138,113.5L138,117" id="container-L_A_B_0" class="edge-thickness-normal edge-pattern-solid edge-thickness-normal edge-pattern-solid flowchart-link" style=";" data-edge="true" data-et="edge" data-id="L_A_B_0" data-points="W3sieCI6NzMwLjgyODcxMzIyODUzNDYsInkiOjQ3LjIwMjYxMTEzNTU3MzYyNn0seyJ4IjoxMzgsInkiOjk2fSx7IngiOjEzOCwieSI6MTIxfV0=" data-look="classic" marker-end="url(#container_flowchart-v2-pointEnd)"></path><path d="M732.613,52.574L683.178,59.811C633.744,67.049,534.876,81.525,485.442,92.262C436.008,103,436.008,110,436.008,113.5L436.008,117" id="container-L_A_C_0" class="edge-thickness-normal edge-pattern-solid edge-thickness-normal edge-pattern-solid flowchart-link" style=";" data-edge="true" data-et="edge" data-id="L_A_C_0" data-points="W3sieCI6NzMyLjYxMjYyNDQ0Njk1NjYsInkiOjUyLjU3MzY4MTI5NTU2ODQ0fSx7IngiOjQzNi4wMDc4MTI1LCJ5Ijo5Nn0seyJ4Ijo0MzYuMDA3ODEyNSwieSI6MTIxfV0=" data-look="classic" marker-end="url(#container_flowchart-v2-pointEnd)"></path><path d="M752.048,70.039L742.375,74.366C732.701,78.693,713.355,87.346,703.681,95.173C694.008,103,694.008,110,694.008,113.5L694.008,117" id="container-L_A_D_0" class="edge-thickness-normal edge-pattern-solid edge-thickness-normal edge-pattern-solid flowchart-link" style=";" data-edge="true" data-et="edge" data-id="L_A_D_0" data-points="W3sieCI6NzUyLjA0ODE4MjUyMjk3LCJ5Ijo3MC4wMzk0NDI1OTY1MDE0N30seyJ4Ijo2OTQuMDA3ODEyNSwieSI6OTZ9LHsieCI6Njk0LjAwNzgxMjUsInkiOjEyMX1d" data-look="classic" marker-end="url(#container_flowchart-v2-pointEnd)"></path><path d="M888.763,67.416L901.302,72.18C913.842,76.944,938.921,86.472,951.46,94.736C964,103,964,110,964,113.5L964,117" id="container-L_A_E_0" class="edge-thickness-normal edge-pattern-solid edge-thickness-normal edge-pattern-solid flowchart-link" style=";" data-edge="true" data-et="edge" data-id="L_A_E_0" data-points="W3sieCI6ODg4Ljc2MjYxNDkwNzE3MDYsInkiOjY3LjQxNTU1NzIwMjEwNTh9LHsieCI6OTY0LCJ5Ijo5Nn0seyJ4Ijo5NjQsInkiOjEyMX1d" data-look="classic" marker-end="url(#container_flowchart-v2-pointEnd)"></path><path d="M902.917,50.573L964.764,58.144C1026.611,65.716,1150.306,80.858,1212.153,91.929C1274,103,1274,110,1274,113.5L1274,117" id="container-L_A_F_0" class="edge-thickness-normal edge-pattern-solid edge-thickness-normal edge-pattern-solid flowchart-link" style=";" data-edge="true" data-et="edge" data-id="L_A_F_0" data-points="W3sieCI6OTAyLjkxNzE2NDMwMDMwODEsInkiOjUwLjU3MzI4MjMyODA0NjYxfSx7IngiOjEyNzQsInkiOjk2fSx7IngiOjEyNzQsInkiOjEyMX1d" data-look="classic" marker-end="url(#container_flowchart-v2-pointEnd)"></path><path d="M904.039,46.625L1012.7,54.854C1121.362,63.083,1338.685,79.542,1447.346,91.271C1556.008,103,1556.008,110,1556.008,113.5L1556.008,117" id="container-L_A_G_0" class="edge-thickness-normal edge-pattern-solid edge-thickness-normal edge-pattern-solid flowchart-link" style=";" data-edge="true" data-et="edge" data-id="L_A_G_0" data-points="W3sieCI6OTA0LjAzOTAwODQ1MDUwNzMsInkiOjQ2LjYyNDk0MTAzNzc4MjM0fSx7IngiOjE1NTYuMDA3ODEyNSwieSI6OTZ9LHsieCI6MTU1Ni4wMDc4MTI1LCJ5IjoxMjF9XQ==" data-look="classic" marker-end="url(#container_flowchart-v2-pointEnd)"></path><path d="M138,175L138,179.167C138,183.333,138,191.667,138,199.333C138,207,138,214,138,217.5L138,221" id="container-L_B_B1_0" class="edge-thickness-normal edge-pattern-solid edge-thickness-normal edge-pattern-solid flowchart-link" style=";" data-edge="true" data-et="edge" data-id="L_B_B1_0" data-points="W3sieCI6MTM4LCJ5IjoxNzV9LHsieCI6MTM4LCJ5IjoyMDB9LHsieCI6MTM4LCJ5IjoyMjV9XQ==" data-look="classic" marker-end="url(#container_flowchart-v2-pointEnd)"></path><path d="M138,327L138,331.167C138,335.333,138,343.667,138,351.333C138,359,138,366,138,369.5L138,373" id="container-L_B1_B2_0" class="edge-thickness-normal edge-pattern-solid edge-thickness-normal edge-pattern-solid flowchart-link" style=";" data-edge="true" data-et="edge" data-id="L_B1_B2_0" data-points="W3sieCI6MTM4LCJ5IjozMjd9LHsieCI6MTM4LCJ5IjozNTJ9LHsieCI6MTM4LCJ5IjozNzd9XQ==" data-look="classic" marker-end="url(#container_flowchart-v2-pointEnd)"></path><path d="M436.008,175L436.008,179.167C436.008,183.333,436.008,191.667,436.008,199.333C436.008,207,436.008,214,436.008,217.5L436.008,221" id="container-L_C_C1_0" class="edge-thickness-normal edge-pattern-solid edge-thickness-normal edge-pattern-solid flowchart-link" style=";" data-edge="true" data-et="edge" data-id="L_C_C1_0" data-points="W3sieCI6NDM2LjAwNzgxMjUsInkiOjE3NX0seyJ4Ijo0MzYuMDA3ODEyNSwieSI6MjAwfSx7IngiOjQzNi4wMDc4MTI1LCJ5IjoyMjV9XQ==" data-look="classic" marker-end="url(#container_flowchart-v2-pointEnd)"></path><path d="M436.008,327L436.008,331.167C436.008,335.333,436.008,343.667,436.008,353.333C436.008,363,436.008,374,436.008,379.5L436.008,385" id="container-L_C1_C2_0" class="edge-thickness-normal edge-pattern-solid edge-thickness-normal edge-pattern-solid flowchart-link" style=";" data-edge="true" data-et="edge" data-id="L_C1_C2_0" data-points="W3sieCI6NDM2LjAwNzgxMjUsInkiOjMyN30seyJ4Ijo0MzYuMDA3ODEyNSwieSI6MzUyfSx7IngiOjQzNi4wMDc4MTI1LCJ5IjozODl9XQ==" data-look="classic" marker-end="url(#container_flowchart-v2-pointEnd)"></path><path d="M694.008,175L694.008,179.167C694.008,183.333,694.008,191.667,694.008,199.333C694.008,207,694.008,214,694.008,217.5L694.008,221" id="container-L_D_D1_0" class="edge-thickness-normal edge-pattern-solid edge-thickness-normal edge-pattern-solid flowchart-link" style=";" data-edge="true" data-et="edge" data-id="L_D_D1_0" data-points="W3sieCI6Njk0LjAwNzgxMjUsInkiOjE3NX0seyJ4Ijo2OTQuMDA3ODEyNSwieSI6MjAwfSx7IngiOjY5NC4wMDc4MTI1LCJ5IjoyMjV9XQ==" data-look="classic" marker-end="url(#container_flowchart-v2-pointEnd)"></path><path d="M694.008,327L694.008,331.167C694.008,335.333,694.008,343.667,694.008,351.333C694.008,359,694.008,366,694.008,369.5L694.008,373" id="container-L_D1_D2_0" class="edge-thickness-normal edge-pattern-solid edge-thickness-normal edge-pattern-solid flowchart-link" style=";" data-edge="true" data-et="edge" data-id="L_D1_D2_0" data-points="W3sieCI6Njk0LjAwNzgxMjUsInkiOjMyN30seyJ4Ijo2OTQuMDA3ODEyNSwieSI6MzUyfSx7IngiOjY5NC4wMDc4MTI1LCJ5IjozNzd9XQ==" data-look="classic" marker-end="url(#container_flowchart-v2-pointEnd)"></path><path d="M964,175L964,179.167C964,183.333,964,191.667,964,199.333C964,207,964,214,964,217.5L964,221" id="container-L_E_E1_0" class="edge-thickness-normal edge-pattern-solid edge-thickness-normal edge-pattern-solid flowchart-link" style=";" data-edge="true" data-et="edge" data-id="L_E_E1_0" data-points="W3sieCI6OTY0LCJ5IjoxNzV9LHsieCI6OTY0LCJ5IjoyMDB9LHsieCI6OTY0LCJ5IjoyMjV9XQ==" data-look="classic" marker-end="url(#container_flowchart-v2-pointEnd)"></path><path d="M964,327L964,331.167C964,335.333,964,343.667,964,351.333C964,359,964,366,964,369.5L964,373" id="container-L_E1_E2_0" class="edge-thickness-normal edge-pattern-solid edge-thickness-normal edge-pattern-solid flowchart-link" style=";" data-edge="true" data-et="edge" data-id="L_E1_E2_0" data-points="W3sieCI6OTY0LCJ5IjozMjd9LHsieCI6OTY0LCJ5IjozNTJ9LHsieCI6OTY0LCJ5IjozNzd9XQ==" data-look="classic" marker-end="url(#container_flowchart-v2-pointEnd)"></path><path d="M1274,175L1274,179.167C1274,183.333,1274,191.667,1274,199.333C1274,207,1274,214,1274,217.5L1274,221" id="container-L_F_F1_0" class="edge-thickness-normal edge-pattern-solid edge-thickness-normal edge-pattern-solid flowchart-link" style=";" data-edge="true" data-et="edge" data-id="L_F_F1_0" data-points="W3sieCI6MTI3NCwieSI6MTc1fSx7IngiOjEyNzQsInkiOjIwMH0seyJ4IjoxMjc0LCJ5IjoyMjV9XQ==" data-look="classic" marker-end="url(#container_flowchart-v2-pointEnd)"></path><path d="M1274,327L1274,331.167C1274,335.333,1274,343.667,1274,351.333C1274,359,1274,366,1274,369.5L1274,373" id="container-L_F1_F2_0" class="edge-thickness-normal edge-pattern-solid edge-thickness-normal edge-pattern-solid flowchart-link" style=";" data-edge="true" data-et="edge" data-id="L_F1_F2_0" data-points="W3sieCI6MTI3NCwieSI6MzI3fSx7IngiOjEyNzQsInkiOjM1Mn0seyJ4IjoxMjc0LCJ5IjozNzd9XQ==" data-look="classic" marker-end="url(#container_flowchart-v2-pointEnd)"></path><path d="M1556.008,175L1556.008,179.167C1556.008,183.333,1556.008,191.667,1556.008,199.333C1556.008,207,1556.008,214,1556.008,217.5L1556.008,221" id="container-L_G_G1_0" class="edge-thickness-normal edge-pattern-solid edge-thickness-normal edge-pattern-solid flowchart-link" style=";" data-edge="true" data-et="edge" data-id="L_G_G1_0" data-points="W3sieCI6MTU1Ni4wMDc4MTI1LCJ5IjoxNzV9LHsieCI6MTU1Ni4wMDc4MTI1LCJ5IjoyMDB9LHsieCI6MTU1Ni4wMDc4MTI1LCJ5IjoyMjV9XQ==" data-look="classic" marker-end="url(#container_flowchart-v2-pointEnd)"></path><path d="M1556.008,327L1556.008,331.167C1556.008,335.333,1556.008,343.667,1556.008,353.333C1556.008,363,1556.008,374,1556.008,379.5L1556.008,385" id="container-L_G1_G2_0" class="edge-thickness-normal edge-pattern-solid edge-thickness-normal edge-pattern-solid flowchart-link" style=";" data-edge="true" data-et="edge" data-id="L_G1_G2_0" data-points="W3sieCI6MTU1Ni4wMDc4MTI1LCJ5IjozMjd9LHsieCI6MTU1Ni4wMDc4MTI1LCJ5IjozNTJ9LHsieCI6MTU1Ni4wMDc4MTI1LCJ5IjozODl9XQ==" data-look="classic" marker-end="url(#container_flowchart-v2-pointEnd)"></path><path d="M138,503L138,507.167C138,511.333,138,519.667,236.835,531.271C335.669,542.875,533.338,557.75,632.173,565.188L731.007,572.625" id="container-L_B2_H_0" class="edge-thickness-normal edge-pattern-solid edge-thickness-normal edge-pattern-solid flowchart-link" style=";" data-edge="true" data-et="edge" data-id="L_B2_H_0" data-points="W3sieCI6MTM4LCJ5Ijo1MDN9LHsieCI6MTM4LCJ5Ijo1Mjh9LHsieCI6NzM0Ljk5NjA5Mzc1LCJ5Ijo1NzIuOTI1NjQ1OTk3Mzg4M31d" data-look="classic" marker-end="url(#container_flowchart-v2-pointEnd)"></path><path d="M436.008,491L436.008,497.167C436.008,503.333,436.008,515.667,485.178,528.339C534.349,541.012,632.69,554.024,681.86,560.53L731.031,567.036" id="container-L_C2_H_0" class="edge-thickness-normal edge-pattern-solid edge-thickness-normal edge-pattern-solid flowchart-link" style=";" data-edge="true" data-et="edge" data-id="L_C2_H_0" data-points="W3sieCI6NDM2LjAwNzgxMjUsInkiOjQ5MX0seyJ4Ijo0MzYuMDA3ODEyNSwieSI6NTI4fSx7IngiOjczNC45OTYwOTM3NSwieSI6NTY3LjU2MTE4MzYxNTQ1NDJ9XQ==" data-look="classic" marker-end="url(#container_flowchart-v2-pointEnd)"></path><path d="M694.008,503L694.008,507.167C694.008,511.333,694.008,519.667,704.203,527.76C714.398,535.854,734.787,543.708,744.982,547.635L755.177,551.562" id="container-L_D2_H_0" class="edge-thickness-normal edge-pattern-solid edge-thickness-normal edge-pattern-solid flowchart-link" style=";" data-edge="true" data-et="edge" data-id="L_D2_H_0" data-points="W3sieCI6Njk0LjAwNzgxMjUsInkiOjUwM30seyJ4Ijo2OTQuMDA3ODEyNSwieSI6NTI4fSx7IngiOjc1OC45MDk3ODA2NDkwMzg1LCJ5Ijo1NTN9XQ==" data-look="classic" marker-end="url(#container_flowchart-v2-pointEnd)"></path><path d="M964,503L964,507.167C964,511.333,964,519.667,953.805,527.76C943.61,535.854,923.22,543.708,913.026,547.635L902.831,551.562" id="container-L_E2_H_0" class="edge-thickness-normal edge-pattern-solid edge-thickness-normal edge-pattern-solid flowchart-link" style=";" data-edge="true" data-et="edge" data-id="L_E2_H_0" data-points="W3sieCI6OTY0LCJ5Ijo1MDN9LHsieCI6OTY0LCJ5Ijo1Mjh9LHsieCI6ODk5LjA5ODAzMTg1MDk2MTUsInkiOjU1M31d" data-look="classic" marker-end="url(#container_flowchart-v2-pointEnd)"></path><path d="M1274,503L1274,507.167C1274,511.333,1274,519.667,1216.164,530.592C1158.328,541.517,1042.656,555.034,984.821,561.792L926.985,568.55" id="container-L_F2_H_0" class="edge-thickness-normal edge-pattern-solid edge-thickness-normal edge-pattern-solid flowchart-link" style=";" data-edge="true" data-et="edge" data-id="L_F2_H_0" data-points="W3sieCI6MTI3NCwieSI6NTAzfSx7IngiOjEyNzQsInkiOjUyOH0seyJ4Ijo5MjMuMDExNzE4NzUsInkiOjU2OS4wMTQ3MjA5ODU5NjM3fV0=" data-look="classic" marker-end="url(#container_flowchart-v2-pointEnd)"></path><path d="M1556.008,491L1556.008,497.167C1556.008,503.333,1556.008,515.667,1451.173,529.332C1346.339,542.997,1136.67,557.994,1031.836,565.492L927.002,572.991" id="container-L_G2_H_0" class="edge-thickness-normal edge-pattern-solid edge-thickness-normal edge-pattern-solid flowchart-link" style=";" data-edge="true" data-et="edge" data-id="L_G2_H_0" data-points="W3sieCI6MTU1Ni4wMDc4MTI1LCJ5Ijo0OTF9LHsieCI6MTU1Ni4wMDc4MTI1LCJ5Ijo1Mjh9LHsieCI6OTIzLjAxMTcxODc1LCJ5Ijo1NzMuMjc1OTU2MDA1MjIyNn1d" data-look="classic" marker-end="url(#container_flowchart-v2-pointEnd)"></path><path d="M734.996,591.506L679.852,598.255C624.708,605.004,514.421,618.502,459.277,630.751C404.133,643,404.133,654,404.133,659.5L404.133,665" id="container-L_H_H1_0" class="edge-thickness-normal edge-pattern-solid edge-thickness-normal edge-pattern-solid flowchart-link" style=";" data-edge="true" data-et="edge" data-id="L_H_H1_0" data-points="W3sieCI6NzM0Ljk5NjA5Mzc1LCJ5Ijo1OTEuNTA1NjIyMTA5NjQ3Mn0seyJ4Ijo0MDQuMTMyODEyNSwieSI6NjMyfSx7IngiOjQwNC4xMzI4MTI1LCJ5Ijo2Njl9XQ==" data-look="classic" marker-end="url(#container_flowchart-v2-pointEnd)"></path><path d="M756.76,607L745.611,611.167C734.462,615.333,712.165,623.667,701.016,633.333C689.867,643,689.867,654,689.867,659.5L689.867,665" id="container-L_H_H2_0" class="edge-thickness-normal edge-pattern-solid edge-thickness-normal edge-pattern-solid flowchart-link" style=";" data-edge="true" data-et="edge" data-id="L_H_H2_0" data-points="W3sieCI6NzU2Ljc1OTg0MDc0NTE5MjMsInkiOjYwN30seyJ4Ijo2ODkuODY3MTg3NSwieSI6NjMyfSx7IngiOjY4OS44NjcxODc1LCJ5Ijo2Njl9XQ==" data-look="classic" marker-end="url(#container_flowchart-v2-pointEnd)"></path><path d="M907.341,607L919.43,611.167C931.519,615.333,955.697,623.667,967.786,631.333C979.875,639,979.875,646,979.875,649.5L979.875,653" id="container-L_H_H3_0" class="edge-thickness-normal edge-pattern-solid edge-thickness-normal edge-pattern-solid flowchart-link" style=";" data-edge="true" data-et="edge" data-id="L_H_H3_0" data-points="W3sieCI6OTA3LjM0MDgyMDMxMjUsInkiOjYwN30seyJ4Ijo5NzkuODc1LCJ5Ijo2MzJ9LHsieCI6OTc5Ljg3NSwieSI6NjU3fV0=" data-look="classic" marker-end="url(#container_flowchart-v2-pointEnd)"></path><path d="M923.012,590.607L984.156,597.506C1045.299,604.405,1167.587,618.202,1228.731,628.601C1289.875,639,1289.875,646,1289.875,649.5L1289.875,653" id="container-L_H_H4_0" class="edge-thickness-normal edge-pattern-solid edge-thickness-normal edge-pattern-solid flowchart-link" style=";" data-edge="true" data-et="edge" data-id="L_H_H4_0" data-points="W3sieCI6OTIzLjAxMTcxODc1LCJ5Ijo1OTAuNjA2ODg0MDQyNjE2M30seyJ4IjoxMjg5Ljg3NSwieSI6NjMyfSx7IngiOjEyODkuODc1LCJ5Ijo2NTd9XQ==" data-look="classic" marker-end="url(#container_flowchart-v2-pointEnd)"></path></g><g class="edgeLabels"><g class="edgeLabel"><g class="label" data-id="L_A_B_0" transform="translate(0, 0)"><foreignObject width="0" height="0"><div xmlns="http://www.w3.org/1999/xhtml" class="labelBkg" style="display: table-cell; white-space: nowrap; line-height: 1.5; max-width: 200px; text-align: center;"><span class="edgeLabel"></span></div></foreignObject></g></g><g class="edgeLabel"><g class="label" data-id="L_A_C_0" transform="translate(0, 0)"><foreignObject width="0" height="0"><div xmlns="http://www.w3.org/1999/xhtml" class="labelBkg" style="display: table-cell; white-space: nowrap; line-height: 1.5; max-width: 200px; text-align: center;"><span class="edgeLabel"></span></div></foreignObject></g></g><g class="edgeLabel"><g class="label" data-id="L_A_D_0" transform="translate(0, 0)"><foreignObject width="0" height="0"><div xmlns="http://www.w3.org/1999/xhtml" class="labelBkg" style="display: table-cell; white-space: nowrap; line-height: 1.5; max-width: 200px; text-align: center;"><span class="edgeLabel"></span></div></foreignObject></g></g><g class="edgeLabel"><g class="label" data-id="L_A_E_0" transform="translate(0, 0)"><foreignObject width="0" height="0"><div xmlns="http://www.w3.org/1999/xhtml" class="labelBkg" style="display: table-cell; white-space: nowrap; line-height: 1.5; max-width: 200px; text-align: center;"><span class="edgeLabel"></span></div></foreignObject></g></g><g class="edgeLabel"><g class="label" data-id="L_A_F_0" transform="translate(0, 0)"><foreignObject width="0" height="0"><div xmlns="http://www.w3.org/1999/xhtml" class="labelBkg" style="display: table-cell; white-space: nowrap; line-height: 1.5; max-width: 200px; text-align: center;"><span class="edgeLabel"></span></div></foreignObject></g></g><g class="edgeLabel"><g class="label" data-id="L_A_G_0" transform="translate(0, 0)"><foreignObject width="0" height="0"><div xmlns="http://www.w3.org/1999/xhtml" class="labelBkg" style="display: table-cell; white-space: nowrap; line-height: 1.5; max-width: 200px; text-align: center;"><span class="edgeLabel"></span></div></foreignObject></g></g><g class="edgeLabel"><g class="label" data-id="L_B_B1_0" transform="translate(0, 0)"><foreignObject width="0" height="0"><div xmlns="http://www.w3.org/1999/xhtml" class="labelBkg" style="display: table-cell; white-space: nowrap; line-height: 1.5; max-width: 200px; text-align: center;"><span class="edgeLabel"></span></div></foreignObject></g></g><g class="edgeLabel"><g class="label" data-id="L_B1_B2_0" transform="translate(0, 0)"><foreignObject width="0" height="0"><div xmlns="http://www.w3.org/1999/xhtml" class="labelBkg" style="display: table-cell; white-space: nowrap; line-height: 1.5; max-width: 200px; text-align: center;"><span class="edgeLabel"></span></div></foreignObject></g></g><g class="edgeLabel"><g class="label" data-id="L_C_C1_0" transform="translate(0, 0)"><foreignObject width="0" height="0"><div xmlns="http://www.w3.org/1999/xhtml" class="labelBkg" style="display: table-cell; white-space: nowrap; line-height: 1.5; max-width: 200px; text-align: center;"><span class="edgeLabel"></span></div></foreignObject></g></g><g class="edgeLabel"><g class="label" data-id="L_C1_C2_0" transform="translate(0, 0)"><foreignObject width="0" height="0"><div xmlns="http://www.w3.org/1999/xhtml" class="labelBkg" style="display: table-cell; white-space: nowrap; line-height: 1.5; max-width: 200px; text-align: center;"><span class="edgeLabel"></span></div></foreignObject></g></g><g class="edgeLabel"><g class="label" data-id="L_D_D1_0" transform="translate(0, 0)"><foreignObject width="0" height="0"><div xmlns="http://www.w3.org/1999/xhtml" class="labelBkg" style="display: table-cell; white-space: nowrap; line-height: 1.5; max-width: 200px; text-align: center;"><span class="edgeLabel"></span></div></foreignObject></g></g><g class="edgeLabel"><g class="label" data-id="L_D1_D2_0" transform="translate(0, 0)"><foreignObject width="0" height="0"><div xmlns="http://www.w3.org/1999/xhtml" class="labelBkg" style="display: table-cell; white-space: nowrap; line-height: 1.5; max-width: 200px; text-align: center;"><span class="edgeLabel"></span></div></foreignObject></g></g><g class="edgeLabel"><g class="label" data-id="L_E_E1_0" transform="translate(0, 0)"><foreignObject width="0" height="0"><div xmlns="http://www.w3.org/1999/xhtml" class="labelBkg" style="display: table-cell; white-space: nowrap; line-height: 1.5; max-width: 200px; text-align: center;"><span class="edgeLabel"></span></div></foreignObject></g></g><g class="edgeLabel"><g class="label" data-id="L_E1_E2_0" transform="translate(0, 0)"><foreignObject width="0" height="0"><div xmlns="http://www.w3.org/1999/xhtml" class="labelBkg" style="display: table-cell; white-space: nowrap; line-height: 1.5; max-width: 200px; text-align: center;"><span class="edgeLabel"></span></div></foreignObject></g></g><g class="edgeLabel"><g class="label" data-id="L_F_F1_0" transform="translate(0, 0)"><foreignObject width="0" height="0"><div xmlns="http://www.w3.org/1999/xhtml" class="labelBkg" style="display: table-cell; white-space: nowrap; line-height: 1.5; max-width: 200px; text-align: center;"><span class="edgeLabel"></span></div></foreignObject></g></g><g class="edgeLabel"><g class="label" data-id="L_F1_F2_0" transform="translate(0, 0)"><foreignObject width="0" height="0"><div xmlns="http://www.w3.org/1999/xhtml" class="labelBkg" style="display: table-cell; white-space: nowrap; line-height: 1.5; max-width: 200px; text-align: center;"><span class="edgeLabel"></span></div></foreignObject></g></g><g class="edgeLabel"><g class="label" data-id="L_G_G1_0" transform="translate(0, 0)"><foreignObject width="0" height="0"><div xmlns="http://www.w3.org/1999/xhtml" class="labelBkg" style="display: table-cell; white-space: nowrap; line-height: 1.5; max-width: 200px; text-align: center;"><span class="edgeLabel"></span></div></foreignObject></g></g><g class="edgeLabel"><g class="label" data-id="L_G1_G2_0" transform="translate(0, 0)"><foreignObject width="0" height="0"><div xmlns="http://www.w3.org/1999/xhtml" class="labelBkg" style="display: table-cell; white-space: nowrap; line-height: 1.5; max-width: 200px; text-align: center;"><span class="edgeLabel"></span></div></foreignObject></g></g><g class="edgeLabel"><g class="label" data-id="L_B2_H_0" transform="translate(0, 0)"><foreignObject width="0" height="0"><div xmlns="http://www.w3.org/1999/xhtml" class="labelBkg" style="display: table-cell; white-space: nowrap; line-height: 1.5; max-width: 200px; text-align: center;"><span class="edgeLabel"></span></div></foreignObject></g></g><g class="edgeLabel"><g class="label" data-id="L_C2_H_0" transform="translate(0, 0)"><foreignObject width="0" height="0"><div xmlns="http://www.w3.org/1999/xhtml" class="labelBkg" style="display: table-cell; white-space: nowrap; line-height: 1.5; max-width: 200px; text-align: center;"><span class="edgeLabel"></span></div></foreignObject></g></g><g class="edgeLabel"><g class="label" data-id="L_D2_H_0" transform="translate(0, 0)"><foreignObject width="0" height="0"><div xmlns="http://www.w3.org/1999/xhtml" class="labelBkg" style="display: table-cell; white-space: nowrap; line-height: 1.5; max-width: 200px; text-align: center;"><span class="edgeLabel"></span></div></foreignObject></g></g><g class="edgeLabel"><g class="label" data-id="L_E2_H_0" transform="translate(0, 0)"><foreignObject width="0" height="0"><div xmlns="http://www.w3.org/1999/xhtml" class="labelBkg" style="display: table-cell; white-space: nowrap; line-height: 1.5; max-width: 200px; text-align: center;"><span class="edgeLabel"></span></div></foreignObject></g></g><g class="edgeLabel"><g class="label" data-id="L_F2_H_0" transform="translate(0, 0)"><foreignObject width="0" height="0"><div xmlns="http://www.w3.org/1999/xhtml" class="labelBkg" style="display: table-cell; white-space: nowrap; line-height: 1.5; max-width: 200px; text-align: center;"><span class="edgeLabel"></span></div></foreignObject></g></g><g class="edgeLabel"><g class="label" data-id="L_G2_H_0" transform="translate(0, 0)"><foreignObject width="0" height="0"><div xmlns="http://www.w3.org/1999/xhtml" class="labelBkg" style="display: table-cell; white-space: nowrap; line-height: 1.5; max-width: 200px; text-align: center;"><span class="edgeLabel"></span></div></foreignObject></g></g><g class="edgeLabel"><g class="label" data-id="L_H_H1_0" transform="translate(0, 0)"><foreignObject width="0" height="0"><div xmlns="http://www.w3.org/1999/xhtml" class="labelBkg" style="display: table-cell; white-space: nowrap; line-height: 1.5; max-width: 200px; text-align: center;"><span class="edgeLabel"></span></div></foreignObject></g></g><g class="edgeLabel"><g class="label" data-id="L_H_H2_0" transform="translate(0, 0)"><foreignObject width="0" height="0"><div xmlns="http://www.w3.org/1999/xhtml" class="labelBkg" style="display: table-cell; white-space: nowrap; line-height: 1.5; max-width: 200px; text-align: center;"><span class="edgeLabel"></span></div></foreignObject></g></g><g class="edgeLabel"><g class="label" data-id="L_H_H3_0" transform="translate(0, 0)"><foreignObject width="0" height="0"><div xmlns="http://www.w3.org/1999/xhtml" class="labelBkg" style="display: table-cell; white-space: nowrap; line-height: 1.5; max-width: 200px; text-align: center;"><span class="edgeLabel"></span></div></foreignObject></g></g><g class="edgeLabel"><g class="label" data-id="L_H_H4_0" transform="translate(0, 0)"><foreignObject width="0" height="0"><div xmlns="http://www.w3.org/1999/xhtml" class="labelBkg" style="display: table-cell; white-space: nowrap; line-height: 1.5; max-width: 200px; text-align: center;"><span class="edgeLabel"></span></div></foreignObject></g></g></g><g class="nodes"><g class="node default" id="container-flowchart-A-0" data-look="classic" transform="translate(816.87109375, 39.5)"><g class="basic label-container outer-path"><path d="M-55.8828125 -31.5 C-33.147252185253954 -31.5, -10.411691870507909 -31.5, 55.8828125 -31.5 C55.8828125 -31.5, 55.8828125 -31.5, 55.8828125 -31.5 C56.66258095819292 -31.474994343272982, 57.442349416385845 -31.449988686545964, 57.90102442939246 -31.435279871635593 C58.44399552861994 -31.382900102711403, 58.98696662784743 -31.330520333787216, 59.91094309306194 -31.241385435432253 C60.424900838876574 -31.15829273289079, 60.938858584691204 -31.07520003034933, 61.904309304093225 -30.91911344521856 C62.517682215774954 -30.77911508075952, 63.13105512745668 -30.639116716300478, 63.87293189314948 -30.469788185729428 C64.38626511236141 -30.317433580808377, 64.89959833157336 -30.165078975887326, 65.80872136774406 -29.895256030836062 C66.22497495778721 -29.742070861894174, 66.64122854783037 -29.588885692952285, 67.70372315370028 -29.197877856399685 C68.3254818969006 -28.922643704602713, 68.94724064010092 -28.647409552805737, 69.55015028220308 -28.380519338926202 C70.07298433006002 -28.10775715105042, 70.59581837791698 -27.83499496317464, 71.34041538812403 -27.44653917988677 C71.91268832789797 -27.09962396074672, 72.4849612676719 -26.75270874160667, 73.06716188813228 -26.399775304092984 C73.64503915290331 -25.99667314009232, 74.22291641767434 -25.59357097609165, 74.7232942104733 -25.244529088840633 C75.25172332533171 -24.823120931830367, 75.78015244019012 -24.4017127748201, 76.30200695219533 -23.985547688627737 C76.69093610222775 -23.6323325250697, 77.07986525226018 -23.279117361511666, 77.79681284400982 -22.62800452807842 C78.1338627629488 -22.279972814460955, 78.47091268188775 -21.931941100843485, 79.20156940787243 -21.177478043231485 C79.64225451835112 -20.659824236770056, 80.08293962882982 -20.142170430308628, 80.51050419774293 -19.63992875855011 C80.98665482727661 -19.00193029318971, 81.46280545681029 -18.363931827829308, 81.7182385198041 -18.02167479384835 C82.06094706207793 -17.495182442786728, 82.40365560435174 -16.968690091725104, 82.8198095346684 -16.329365901781543 C83.11246197448176 -15.809731860619952, 83.40511441429513 -15.290097819458358, 83.8106906507495 -14.56995614258631 C84.1130709184135 -13.942057046880759, 84.41545118607749 -13.314157951175208, 84.68681012499809 -12.750675308355413 C84.97008270897958 -12.050986549218312, 85.25335529296106 -11.351297790081208, 85.44456779456745 -10.878999214271206 C85.62814575505462 -10.326091646459753, 85.81172371554179 -9.773184078648299, 86.08084987065482 -8.962618978877531 C86.28524156162878 -8.183184877274577, 86.48963325260274 -7.403750775671624, 86.59304173372745 -7.009409419623907 C86.73012088248721 -6.305536962430863, 86.86720003124698 -5.601664505237819, 86.97903867755518 -5.027396693551458 C87.0389944607396 -4.562391478781673, 87.09895024392401 -4.097386264011889, 87.23725455789975 -3.024725316091981 C87.26854445216571 -2.537359956151552, 87.29983434643167 -2.049994596211123, 87.36662831032167 -1.0096246935071378 C87.36662831032167 -0.37745262208064534, 87.36662831032167 0.2547194493458471, 87.36662831032167 1.00962469350713 C87.31807175843444 1.765932183294074, 87.2695152065472 2.522239673081018, 87.23725455789975 3.02472531609196 C87.18008823693705 3.468096012711648, 87.12292191597437 3.9114667093313362, 86.97903867755518 5.027396693551435 C86.90122088762104 5.426974598067537, 86.82340309768689 5.826552502583639, 86.59304173372745 7.0094094196239 C86.49019452997277 7.401610381800555, 86.38734732621809 7.793811343977211, 86.08084987065482 8.96261897887751 C85.9474560713778 9.364379848884246, 85.81406227210078 9.766140718890982, 85.44456779456746 10.878999214271184 C85.15704773160637 11.58917932860732, 84.86952766864528 12.299359442943459, 84.68681012499809 12.750675308355405 C84.4942802926906 13.15046762462039, 84.30175046038312 13.550259940885374, 83.8106906507495 14.569956142586303 C83.59395502028754 14.954792201333941, 83.37721938982558 15.339628260081579, 82.81980953466841 16.329365901781536 C82.40271286891912 16.97013838650952, 81.98561620316984 17.61091087123751, 81.71823851980412 18.021674793848334 C81.4094788027265 18.43538468614346, 81.10071908564888 18.849094578438585, 80.51050419774295 19.639928758550102 C80.18861938666488 20.018032973407006, 79.86673457558683 20.396137188263907, 79.20156940787246 21.177478043231467 C78.78661399115909 21.605953579461314, 78.37165857444573 22.034429115691157, 77.79681284400982 22.628004528078414 C77.30716062933725 23.072693713956383, 76.81750841466469 23.51738289983435, 76.30200695219536 23.985547688627715 C75.89821646506485 24.307559856798157, 75.49442597793434 24.629572024968603, 74.72329421047331 25.24452908884063 C74.34421283684483 25.508959844915676, 73.96513146321635 25.77339060099072, 73.06716188813229 26.399775304092973 C72.67916263200024 26.634982733296944, 72.2911633758682 26.870190162500915, 71.34041538812404 27.446539179886766 C70.71892145197708 27.77077216828877, 70.09742751583013 28.09500515669077, 69.55015028220309 28.3805193389262 C69.17092299281835 28.548392010558977, 68.79169570343359 28.716264682191756, 67.7037231537003 29.197877856399682 C67.05455087576992 29.436779255560815, 66.40537859783954 29.675680654721944, 65.80872136774407 29.895256030836055 C65.37017599250468 30.025413996235457, 64.9316306172653 30.155571961634855, 63.87293189314951 30.46978818572942 C63.45722463347748 30.56467065500617, 63.04151737380545 30.659553124282926, 61.90430930409324 30.919113445218557 C61.419960167942996 30.997419257367678, 60.93561103179275 31.0757250695168, 59.91094309306196 31.24138543543225 C59.238179154102895 31.306286163506616, 58.56541521514383 31.371186891580983, 57.90102442939246 31.435279871635593 C57.397287572563485 31.45143373216979, 56.89355071573451 31.467587592703982, 55.88281250000001 31.5 C55.88281250000001 31.5, 55.8828125 31.5, 55.8828125 31.5 C31.899156711425952 31.5, 7.915500922851905 31.5, -55.88281249999999 31.5 C-56.48217881698755 31.480779488809972, -57.081545133975105 31.461558977619944, -57.90102442939244 31.435279871635593 C-58.61655999454143 31.36625301622309, -59.33209555969043 31.297226160810588, -59.910943093061945 31.24138543543225 C-60.69750818668292 31.114219690999015, -61.484073280303896 30.987053946565776, -61.904309304093225 30.919113445218557 C-62.66380466061328 30.745763586263234, -63.423300017133336 30.57241372730791, -63.87293189314947 30.469788185729428 C-64.40383988135486 30.312217481622966, -64.93474786956025 30.154646777516508, -65.80872136774403 29.89525603083607 C-66.39347946723873 29.6800596447774, -66.97823756673343 29.464863258718736, -67.70372315370028 29.197877856399685 C-68.19154368461558 28.98193417804539, -68.67936421553088 28.76599049969109, -69.55015028220308 28.380519338926206 C-70.17610968061109 28.053956721722876, -70.8020690790191 27.727394104519544, -71.34041538812403 27.446539179886773 C-71.73332826908438 27.208353082436222, -72.12624115004473 26.97016698498567, -73.06716188813226 26.399775304092994 C-73.57444554342207 26.04591618611833, -74.08172919871188 25.692057068143665, -74.7232942104733 25.244529088840636 C-75.1729927186132 24.885906495578944, -75.6226912267531 24.52728390231725, -76.30200695219533 23.98554768862774 C-76.60909863889871 23.706655143964504, -76.9161903256021 23.427762599301268, -77.7968128440098 22.628004528078435 C-78.33982111351429 22.067303908007016, -78.88282938301879 21.506603287935597, -79.20156940787244 21.177478043231478 C-79.5779794332784 20.73532540905243, -79.95438945868437 20.293172774873383, -80.51050419774293 19.639928758550113 C-80.96074398107109 19.036648466578452, -81.41098376439926 18.43336817460679, -81.7182385198041 18.021674793848355 C-81.96877480915663 17.63678377498933, -82.21931109850914 17.2518927561303, -82.8198095346684 16.329365901781557 C-83.12387646343896 15.78946427963411, -83.42794339220953 15.249562657486663, -83.8106906507495 14.569956142586314 C-84.11096289840813 13.9464343955263, -84.41123514606676 13.322912648466287, -84.68681012499809 12.750675308355417 C-84.86853756277026 12.301805023597183, -85.05026500054241 11.852934738838949, -85.44456779456745 10.878999214271209 C-85.57452542896367 10.487587525406923, -85.70448306335989 10.096175836542635, -86.08084987065482 8.962618978877522 C-86.27119310708034 8.236757723106482, -86.46153634350586 7.510896467335443, -86.59304173372743 7.009409419623911 C-86.7300057636611 6.306128073272574, -86.86696979359475 5.602846726921237, -86.97903867755518 5.027396693551461 C-87.0379814805452 4.570247953133835, -87.09692428353522 4.113099212716209, -87.23725455789975 3.024725316091999 C-87.27685972398194 2.407842885647048, -87.31646489006415 1.7909604552020972, -87.36662831032167 1.0096246935071416 C-87.36662831032167 0.5721128964184096, -87.36662831032167 0.13460109932967756, -87.36662831032167 -1.0096246935071262 C-87.3281245361223 -1.6093520563494017, -87.28962076192293 -2.209079419191677, -87.23725455789975 -3.024725316091956 C-87.16207781248869 -3.6077813081726493, -87.08690106707762 -4.190837300253343, -86.97903867755518 -5.027396693551446 C-86.84672123286862 -5.706818806715149, -86.71440378818204 -6.386240919878852, -86.59304173372745 -7.009409419623896 C-86.42974707573933 -7.632122722885029, -86.26645241775122 -8.254836026146162, -86.08084987065482 -8.962618978877506 C-85.85311939043011 -9.64850690138975, -85.6253889102054 -10.334394823901993, -85.44456779456746 -10.878999214271168 C-85.1513840079233 -11.603168835605139, -84.85820022127915 -12.327338456939108, -84.68681012499809 -12.750675308355401 C-84.48162249022926 -13.176751822264965, -84.27643485546041 -13.60282833617453, -83.8106906507495 -14.5699561425863 C-83.55820996629049 -15.018261164284908, -83.30572928183147 -15.466566185983519, -82.8198095346684 -16.329365901781546 C-82.47014328791978 -16.866547155321708, -82.12047704117117 -17.403728408861866, -81.71823851980412 -18.021674793848344 C-81.33300029783659 -18.53785891536082, -80.94776207586905 -19.054043036873303, -80.51050419774295 -19.639928758550102 C-80.14010166259158 -20.075024652840224, -79.7696991274402 -20.51012054713034, -79.20156940787246 -21.177478043231467 C-78.66515856155095 -21.731366282207926, -78.12874771522947 -22.285254521184388, -77.79681284400984 -22.628004528078403 C-77.30194220401656 -23.077432949760667, -76.80707156402329 -23.526861371442926, -76.30200695219536 -23.98554768862771 C-75.98154810905571 -24.241105088263627, -75.66108926591605 -24.496662487899542, -74.72329421047331 -25.244529088840626 C-74.21580397316467 -25.598532309488835, -73.70831373585604 -25.952535530137048, -73.0671618881323 -26.39977530409297 C-72.52227289524119 -26.730090213706713, -71.97738390235008 -27.060405123320457, -71.34041538812404 -27.446539179886763 C-70.97256961831077 -27.638444082381884, -70.6047238484975 -27.83034898487701, -69.55015028220309 -28.3805193389262 C-69.13209163371602 -28.565581501342237, -68.71403298522894 -28.750643663758275, -67.7037231537003 -29.19787785639968 C-66.99227354616302 -29.459697888541477, -66.28082393862574 -29.721517920683272, -65.80872136774407 -29.895256030836055 C-65.088000872329 -30.109162090736167, -64.36728037691393 -30.32306815063628, -63.87293189314951 -30.469788185729417 C-63.44299781289579 -30.56791783396526, -63.01306373264206 -30.666047482201105, -61.90430930409324 -30.919113445218553 C-61.4961694935187 -30.985098324620743, -61.08802968294416 -31.05108320402293, -59.91094309306196 -31.24138543543225 C-59.326673246745436 -31.29774924481911, -58.74240340042891 -31.354113054205964, -57.90102442939246 -31.435279871635593 C-57.29901586631663 -31.454585114514853, -56.6970073032408 -31.47389035739411, -55.88281250000001 -31.5 C-55.88281250000001 -31.5, -55.8828125 -31.5, -55.8828125 -31.5" stroke="none" stroke-width="0" fill="#ECECFF" style=""></path><path d="M-55.8828125 -31.5 C-22.868176550321486 -31.5, 10.146459399357028 -31.5, 55.8828125 -31.5 M-55.8828125 -31.5 C-22.648076928835508 -31.5, 10.586658642328985 -31.5, 55.8828125 -31.5 M55.8828125 -31.5 C55.8828125 -31.5, 55.8828125 -31.5, 55.8828125 -31.5 M55.8828125 -31.5 C55.8828125 -31.5, 55.8828125 -31.5, 55.8828125 -31.5 M55.8828125 -31.5 C56.64229199988374 -31.475644970675894, 57.401771499767484 -31.451289941351792, 57.90102442939246 -31.435279871635593 M55.8828125 -31.5 C56.50576547337906 -31.480023110648137, 57.128718446758114 -31.460046221296274, 57.90102442939246 -31.435279871635593 M57.90102442939246 -31.435279871635593 C58.48436059466991 -31.37900613333566, 59.06769675994735 -31.322732395035725, 59.91094309306194 -31.241385435432253 M57.90102442939246 -31.435279871635593 C58.5800892355781 -31.36977130647778, 59.259154041763736 -31.30426274131997, 59.91094309306194 -31.241385435432253 M59.91094309306194 -31.241385435432253 C60.34153443252496 -31.171770766953582, 60.77212577198798 -31.10215609847491, 61.904309304093225 -30.91911344521856 M59.91094309306194 -31.241385435432253 C60.626966923910665 -31.12562425530837, 61.34299075475939 -31.00986307518449, 61.904309304093225 -30.91911344521856 M61.904309304093225 -30.91911344521856 C62.45133304374237 -30.794258846307144, 62.99835678339153 -30.66940424739573, 63.87293189314948 -30.469788185729428 M61.904309304093225 -30.91911344521856 C62.43047886977812 -30.799018675428282, 62.95664843546301 -30.67892390563801, 63.87293189314948 -30.469788185729428 M63.87293189314948 -30.469788185729428 C64.61967322955454 -30.24815927680967, 65.36641456595959 -30.02653036788991, 65.80872136774406 -29.895256030836062 M63.87293189314948 -30.469788185729428 C64.30632107269244 -30.341160552147304, 64.7397102522354 -30.21253291856518, 65.80872136774406 -29.895256030836062 M65.80872136774406 -29.895256030836062 C66.47494203328269 -29.65008066744152, 67.14116269882132 -29.404905304046984, 67.70372315370028 -29.197877856399685 M65.80872136774406 -29.895256030836062 C66.30561422366885 -29.712394866628525, 66.80250707959365 -29.52953370242099, 67.70372315370028 -29.197877856399685 M67.70372315370028 -29.197877856399685 C68.20935287067809 -28.97405057966625, 68.7149825876559 -28.750223302932813, 69.55015028220308 -28.380519338926202 M67.70372315370028 -29.197877856399685 C68.40856880249395 -28.88586359618202, 69.11341445128762 -28.573849335964354, 69.55015028220308 -28.380519338926202 M69.55015028220308 -28.380519338926202 C70.11585498903811 -28.08539155572152, 70.68155969587315 -27.790263772516845, 71.34041538812403 -27.44653917988677 M69.55015028220308 -28.380519338926202 C70.10070881253806 -28.09329330630001, 70.65126734287304 -27.80606727367382, 71.34041538812403 -27.44653917988677 M71.34041538812403 -27.44653917988677 C71.77514825123151 -27.183001563497132, 72.20988111433901 -26.919463947107495, 73.06716188813228 -26.399775304092984 M71.34041538812403 -27.44653917988677 C71.94458809270513 -27.080286135856795, 72.54876079728623 -26.71403309182682, 73.06716188813228 -26.399775304092984 M73.06716188813228 -26.399775304092984 C73.584294342644 -26.03904609012876, 74.10142679715571 -25.678316876164537, 74.7232942104733 -25.244529088840633 M73.06716188813228 -26.399775304092984 C73.61628373194222 -26.01673167695266, 74.16540557575216 -25.63368804981234, 74.7232942104733 -25.244529088840633 M74.7232942104733 -25.244529088840633 C75.04231655162884 -24.990117261310125, 75.36133889278437 -24.735705433779618, 76.30200695219533 -23.985547688627737 M74.7232942104733 -25.244529088840633 C75.16351043074884 -24.89346836781649, 75.60372665102439 -24.542407646792345, 76.30200695219533 -23.985547688627737 M76.30200695219533 -23.985547688627737 C76.79713062510478 -23.535889469145882, 77.29225429801424 -23.08623124966403, 77.79681284400982 -22.62800452807842 M76.30200695219533 -23.985547688627737 C76.61468454742368 -23.701582169637167, 76.92736214265204 -23.417616650646597, 77.79681284400982 -22.62800452807842 M77.79681284400982 -22.62800452807842 C78.18033334862115 -22.231988119448204, 78.56385385323249 -21.835971710817983, 79.20156940787243 -21.177478043231485 M77.79681284400982 -22.62800452807842 C78.20318599952897 -22.208390881148347, 78.60955915504812 -21.788777234218273, 79.20156940787243 -21.177478043231485 M79.20156940787243 -21.177478043231485 C79.61973942627641 -20.68627174506605, 80.0379094446804 -20.195065446900614, 80.51050419774293 -19.63992875855011 M79.20156940787243 -21.177478043231485 C79.56835429090381 -20.746631648971732, 79.9351391739352 -20.315785254711983, 80.51050419774293 -19.63992875855011 M80.51050419774293 -19.63992875855011 C80.89121065257316 -19.129816792149136, 81.2719171074034 -18.619704825748165, 81.7182385198041 -18.02167479384835 M80.51050419774293 -19.63992875855011 C80.84874377826091 -19.186718534915716, 81.18698335877889 -18.733508311281323, 81.7182385198041 -18.02167479384835 M81.7182385198041 -18.02167479384835 C82.11793267407663 -17.407637239977316, 82.51762682834914 -16.79359968610628, 82.8198095346684 -16.329365901781543 M81.7182385198041 -18.02167479384835 C82.08813196054368 -17.45341913857598, 82.45802540128324 -16.88516348330361, 82.8198095346684 -16.329365901781543 M82.8198095346684 -16.329365901781543 C83.06033646070739 -15.90228598860698, 83.30086338674639 -15.475206075432416, 83.8106906507495 -14.56995614258631 M82.8198095346684 -16.329365901781543 C83.1664170130702 -15.713929226066075, 83.51302449147201 -15.098492550350606, 83.8106906507495 -14.56995614258631 M83.8106906507495 -14.56995614258631 C84.03792423471732 -14.098100743457312, 84.26515781868515 -13.626245344328314, 84.68681012499809 -12.750675308355413 M83.8106906507495 -14.56995614258631 C84.03422814187583 -14.105775759326391, 84.25776563300217 -13.641595376066475, 84.68681012499809 -12.750675308355413 M84.68681012499809 -12.750675308355413 C84.91913477530568 -12.176828930404131, 85.15145942561325 -11.602982552452849, 85.44456779456745 -10.878999214271206 M84.68681012499809 -12.750675308355413 C84.86246785990276 -12.316797307029589, 85.03812559480745 -11.882919305703762, 85.44456779456745 -10.878999214271206 M85.44456779456745 -10.878999214271206 C85.61076215382344 -10.378448283667325, 85.77695651307944 -9.877897353063446, 86.08084987065482 -8.962618978877531 M85.44456779456745 -10.878999214271206 C85.60383319215056 -10.399317212245908, 85.76309858973369 -9.91963521022061, 86.08084987065482 -8.962618978877531 M86.08084987065482 -8.962618978877531 C86.19596673672542 -8.523628476584964, 86.31108360279602 -8.084637974292399, 86.59304173372745 -7.009409419623907 M86.08084987065482 -8.962618978877531 C86.19032121845487 -8.54515728453366, 86.29979256625492 -8.12769559018979, 86.59304173372745 -7.009409419623907 M86.59304173372745 -7.009409419623907 C86.70627852600266 -6.427962423895174, 86.81951531827788 -5.846515428166442, 86.97903867755518 -5.027396693551458 M86.59304173372745 -7.009409419623907 C86.71682821291395 -6.373792011282847, 86.84061469210046 -5.738174602941787, 86.97903867755518 -5.027396693551458 M86.97903867755518 -5.027396693551458 C87.06837558627916 -4.334517271056306, 87.15771249500314 -3.641637848561155, 87.23725455789975 -3.024725316091981 M86.97903867755518 -5.027396693551458 C87.06522524359926 -4.358950706776112, 87.15141180964334 -3.690504720000768, 87.23725455789975 -3.024725316091981 M87.23725455789975 -3.024725316091981 C87.2648445342456 -2.5949891642773735, 87.29243451059143 -2.165253012462766, 87.36662831032167 -1.0096246935071378 M87.23725455789975 -3.024725316091981 C87.2689960968088 -2.53032522627427, 87.30073763571788 -2.0359251364565587, 87.36662831032167 -1.0096246935071378 M87.36662831032167 -1.0096246935071378 C87.36662831032167 -0.3268716674918849, 87.36662831032167 0.355881358523368, 87.36662831032167 1.00962469350713 M87.36662831032167 -1.0096246935071378 C87.36662831032167 -0.5259065337932529, 87.36662831032167 -0.04218837407936793, 87.36662831032167 1.00962469350713 M87.36662831032167 1.00962469350713 C87.33979437554139 1.4275848876723543, 87.3129604407611 1.8455450818375785, 87.23725455789975 3.02472531609196 M87.36662831032167 1.00962469350713 C87.32086690129992 1.7223955769654462, 87.27510549227817 2.435166460423763, 87.23725455789975 3.02472531609196 M87.23725455789975 3.02472531609196 C87.16377233646925 3.5946389148010285, 87.09029011503874 4.164552513510097, 86.97903867755518 5.027396693551435 M87.23725455789975 3.02472531609196 C87.16233299266678 3.6058021811024505, 87.08741142743379 4.186879046112941, 86.97903867755518 5.027396693551435 M86.97903867755518 5.027396693551435 C86.8320861248507 5.781966993255881, 86.68513357214624 6.536537292960326, 86.59304173372745 7.0094094196239 M86.97903867755518 5.027396693551435 C86.88543841865385 5.508014240588084, 86.7918381597525 5.988631787624732, 86.59304173372745 7.0094094196239 M86.59304173372745 7.0094094196239 C86.40486243219715 7.727018653784111, 86.21668313066685 8.444627887944321, 86.08084987065482 8.96261897887751 M86.59304173372745 7.0094094196239 C86.45779654275371 7.525157948443326, 86.32255135177996 8.040906477262752, 86.08084987065482 8.96261897887751 M86.08084987065482 8.96261897887751 C85.88736295759841 9.545370733050307, 85.69387604454202 10.128122487223104, 85.44456779456746 10.878999214271184 M86.08084987065482 8.96261897887751 C85.9263487481735 9.427951743380357, 85.77184762569217 9.893284507883205, 85.44456779456746 10.878999214271184 M85.44456779456746 10.878999214271184 C85.14173728648073 11.626996424074957, 84.83890677839402 12.374993633878727, 84.68681012499809 12.750675308355405 M85.44456779456746 10.878999214271184 C85.2057603287178 11.468858271948106, 84.96695286286814 12.058717329625026, 84.68681012499809 12.750675308355405 M84.68681012499809 12.750675308355405 C84.45682220501666 13.22825014515001, 84.22683428503524 13.705824981944614, 83.8106906507495 14.569956142586303 M84.68681012499809 12.750675308355405 C84.45654555124509 13.228824622626126, 84.22628097749208 13.70697393689685, 83.8106906507495 14.569956142586303 M83.8106906507495 14.569956142586303 C83.41714154758732 15.268742426418777, 83.02359244442513 15.967528710251253, 82.81980953466841 16.329365901781536 M83.8106906507495 14.569956142586303 C83.4713880615855 15.17242224775981, 83.13208547242151 15.774888352933317, 82.81980953466841 16.329365901781536 M82.81980953466841 16.329365901781536 C82.54308079441802 16.754495558877565, 82.26635205416763 17.179625215973594, 81.71823851980412 18.021674793848334 M82.81980953466841 16.329365901781536 C82.48885004443554 16.837808553846045, 82.15789055420265 17.34625120591055, 81.71823851980412 18.021674793848334 M81.71823851980412 18.021674793848334 C81.38847841342745 18.463523294629358, 81.05871830705078 18.90537179541038, 80.51050419774295 19.639928758550102 M81.71823851980412 18.021674793848334 C81.26063817202078 18.634817571628716, 80.80303782423745 19.247960349409095, 80.51050419774295 19.639928758550102 M80.51050419774295 19.639928758550102 C80.10556428284255 20.115594224326017, 79.70062436794214 20.59125969010193, 79.20156940787246 21.177478043231467 M80.51050419774295 19.639928758550102 C80.01025113048051 20.227554476562478, 79.50999806321806 20.815180194574854, 79.20156940787246 21.177478043231467 M79.20156940787246 21.177478043231467 C78.77329213091475 21.61970949390865, 78.34501485395707 22.061940944585835, 77.79681284400982 22.628004528078414 M79.20156940787246 21.177478043231467 C78.91823181093858 21.470047374515026, 78.6348942140047 21.76261670579858, 77.79681284400982 22.628004528078414 M77.79681284400982 22.628004528078414 C77.3401983816991 23.04268970139238, 76.88358391938837 23.457374874706346, 76.30200695219536 23.985547688627715 M77.79681284400982 22.628004528078414 C77.43458998033695 22.956965748974323, 77.07236711666408 23.285926969870232, 76.30200695219536 23.985547688627715 M76.30200695219536 23.985547688627715 C75.87326265758277 24.32745985421641, 75.44451836297019 24.66937201980511, 74.72329421047331 25.24452908884063 M76.30200695219536 23.985547688627715 C75.9615678981579 24.257038774758886, 75.62112884412045 24.52852986089006, 74.72329421047331 25.24452908884063 M74.72329421047331 25.24452908884063 C74.27848206170883 25.55481078821116, 73.83366991294434 25.86509248758169, 73.06716188813229 26.399775304092973 M74.72329421047331 25.24452908884063 C74.13789566526431 25.652877772483837, 73.5524971200553 26.061226456127045, 73.06716188813229 26.399775304092973 M73.06716188813229 26.399775304092973 C72.68496099892323 26.63146772919324, 72.30276010971417 26.863160154293507, 71.34041538812404 27.446539179886766 M73.06716188813229 26.399775304092973 C72.41053896256852 26.79782398031436, 71.75391603700474 27.195872656535744, 71.34041538812404 27.446539179886766 M71.34041538812404 27.446539179886766 C70.96219902313356 27.64385441524316, 70.58398265814309 27.841169650599547, 69.55015028220309 28.3805193389262 M71.34041538812404 27.446539179886766 C70.65830707278927 27.802394651085688, 69.9761987574545 28.158250122284613, 69.55015028220309 28.3805193389262 M69.55015028220309 28.3805193389262 C68.9614412562122 28.641123361299588, 68.3727322302213 28.901727383672977, 67.7037231537003 29.197877856399682 M69.55015028220309 28.3805193389262 C69.05807028508966 28.598348556613836, 68.56599028797622 28.81617777430147, 67.7037231537003 29.197877856399682 M67.7037231537003 29.197877856399682 C67.22346646456727 29.37461675744481, 66.74320977543422 29.551355658489932, 65.80872136774407 29.895256030836055 M67.7037231537003 29.197877856399682 C67.12727233458224 29.410017086488082, 66.5508215154642 29.622156316576483, 65.80872136774407 29.895256030836055 M65.80872136774407 29.895256030836055 C65.10453620339582 30.10425449127126, 64.40035103904759 30.31325295170646, 63.87293189314951 30.46978818572942 M65.80872136774407 29.895256030836055 C65.07638545360064 30.11260948604417, 64.3440495394572 30.329962941252287, 63.87293189314951 30.46978818572942 M63.87293189314951 30.46978818572942 C63.44177824355863 30.568196192708037, 63.010624593967755 30.666604199686653, 61.90430930409324 30.919113445218557 M63.87293189314951 30.46978818572942 C63.477523125113144 30.56003765675037, 63.08211435707678 30.650287127771318, 61.90430930409324 30.919113445218557 M61.90430930409324 30.919113445218557 C61.16773596869382 31.038196909874408, 60.4311626332944 31.157280374530256, 59.91094309306196 31.24138543543225 M61.90430930409324 30.919113445218557 C61.41955058313011 30.997485475863847, 60.93479186216698 31.075857506509138, 59.91094309306196 31.24138543543225 M59.91094309306196 31.24138543543225 C59.35293753234977 31.29521556077428, 58.79493197163758 31.349045686116316, 57.90102442939246 31.435279871635593 M59.91094309306196 31.24138543543225 C59.34454461414769 31.296025215499277, 58.77814613523342 31.3506649955663, 57.90102442939246 31.435279871635593 M57.90102442939246 31.435279871635593 C57.33258907435152 31.45350848707946, 56.764153719310585 31.471737102523324, 55.88281250000001 31.5 M57.90102442939246 31.435279871635593 C57.412144100096015 31.450957312248295, 56.92326377079957 31.466634752861, 55.88281250000001 31.5 M55.88281250000001 31.5 C55.88281250000001 31.5, 55.88281250000001 31.5, 55.8828125 31.5 M55.88281250000001 31.5 C55.88281250000001 31.5, 55.8828125 31.5, 55.8828125 31.5 M55.8828125 31.5 C32.845804719541945 31.5, 9.80879693908389 31.5, -55.88281249999999 31.5 M55.8828125 31.5 C11.661591632495195 31.5, -32.55962923500961 31.5, -55.88281249999999 31.5 M-55.88281249999999 31.5 C-56.449338062834755 31.481832627875, -57.01586362566952 31.463665255750005, -57.90102442939244 31.435279871635593 M-55.88281249999999 31.5 C-56.442647467113765 31.48204718225732, -57.00248243422754 31.46409436451464, -57.90102442939244 31.435279871635593 M-57.90102442939244 31.435279871635593 C-58.303203541808074 31.396482136352006, -58.7053826542237 31.35768440106842, -59.910943093061945 31.24138543543225 M-57.90102442939244 31.435279871635593 C-58.56209391456648 31.37150729345323, -59.22316339974053 31.307734715270865, -59.910943093061945 31.24138543543225 M-59.910943093061945 31.24138543543225 C-60.68031336336203 31.11699961668569, -61.44968363366212 30.99261379793913, -61.904309304093225 30.919113445218557 M-59.910943093061945 31.24138543543225 C-60.45570730535109 31.153312182298905, -61.00047151764023 31.065238929165556, -61.904309304093225 30.919113445218557 M-61.904309304093225 30.919113445218557 C-62.41075902232332 30.803519601925807, -62.91720874055341 30.68792575863306, -63.87293189314947 30.469788185729428 M-61.904309304093225 30.919113445218557 C-62.66427681327918 30.745655820498328, -63.424244322465135 30.572198195778096, -63.87293189314947 30.469788185729428 M-63.87293189314947 30.469788185729428 C-64.33426697797958 30.33286635414913, -64.79560206280968 30.19594452256883, -65.80872136774403 29.89525603083607 M-63.87293189314947 30.469788185729428 C-64.39228304851355 30.315647488947214, -64.91163420387763 30.161506792165003, -65.80872136774403 29.89525603083607 M-65.80872136774403 29.89525603083607 C-66.35172581004676 29.695425376590624, -66.89473025234949 29.495594722345178, -67.70372315370028 29.197877856399685 M-65.80872136774403 29.89525603083607 C-66.24334631887372 29.735310031191336, -66.67797127000343 29.5753640315466, -67.70372315370028 29.197877856399685 M-67.70372315370028 29.197877856399685 C-68.15087202117685 28.999938316967686, -68.59802088865342 28.801998777535683, -69.55015028220308 28.380519338926206 M-67.70372315370028 29.197877856399685 C-68.29449437771402 28.936360960134515, -68.88526560172777 28.674844063869344, -69.55015028220308 28.380519338926206 M-69.55015028220308 28.380519338926206 C-70.01987971937238 28.135461792431045, -70.48960915654169 27.89040424593588, -71.34041538812403 27.446539179886773 M-69.55015028220308 28.380519338926206 C-69.94084094208819 28.176696271913453, -70.33153160197331 27.9728732049007, -71.34041538812403 27.446539179886773 M-71.34041538812403 27.446539179886773 C-71.88145008565759 27.11856076676913, -72.42248478319115 26.79058235365148, -73.06716188813226 26.399775304092994 M-71.34041538812403 27.446539179886773 C-71.84452817786486 27.1409430442503, -72.34864096760569 26.835346908613825, -73.06716188813226 26.399775304092994 M-73.06716188813226 26.399775304092994 C-73.41017027838618 26.16050749964576, -73.75317866864009 25.921239695198523, -74.7232942104733 25.244529088840636 M-73.06716188813226 26.399775304092994 C-73.55003287274712 26.062945408373686, -74.032903857362 25.726115512654378, -74.7232942104733 25.244529088840636 M-74.7232942104733 25.244529088840636 C-75.34778362791943 24.746515396788677, -75.97227304536555 24.248501704736718, -76.30200695219533 23.98554768862774 M-74.7232942104733 25.244529088840636 C-75.31881514321222 24.769616992458918, -75.91433607595114 24.2947048960772, -76.30200695219533 23.98554768862774 M-76.30200695219533 23.98554768862774 C-76.76191933215388 23.567867433764143, -77.22183171211242 23.150187178900545, -77.7968128440098 22.628004528078435 M-76.30200695219533 23.98554768862774 C-76.60998810617255 23.705847353320422, -76.91796926014977 23.4261470180131, -77.7968128440098 22.628004528078435 M-77.7968128440098 22.628004528078435 C-78.34318229862953 22.063833208417115, -78.88955175324924 21.499661888755792, -79.20156940787244 21.177478043231478 M-77.7968128440098 22.628004528078435 C-78.35252258216241 22.054188598817873, -78.90823232031501 21.480372669557312, -79.20156940787244 21.177478043231478 M-79.20156940787244 21.177478043231478 C-79.49685500234834 20.830618781733776, -79.79214059682424 20.483759520236077, -80.51050419774293 19.639928758550113 M-79.20156940787244 21.177478043231478 C-79.6576051793541 20.641792476878607, -80.11364095083577 20.10610691052573, -80.51050419774293 19.639928758550113 M-80.51050419774293 19.639928758550113 C-80.85773896221312 19.174665807897867, -81.20497372668332 18.709402857245625, -81.7182385198041 18.021674793848355 M-80.51050419774293 19.639928758550113 C-80.89853576592667 19.120001807587006, -81.28656733411039 18.600074856623902, -81.7182385198041 18.021674793848355 M-81.7182385198041 18.021674793848355 C-82.06289627796163 17.492187923751604, -82.40755403611917 16.962701053654857, -82.8198095346684 16.329365901781557 M-81.7182385198041 18.021674793848355 C-82.1093155552894 17.420875448454886, -82.5003925907747 16.820076103061417, -82.8198095346684 16.329365901781557 M-82.8198095346684 16.329365901781557 C-83.1143175394832 15.806437117063593, -83.408825544298 15.28350833234563, -83.8106906507495 14.569956142586314 M-82.8198095346684 16.329365901781557 C-83.12044603913758 15.795555345349364, -83.42108254360674 15.261744788917168, -83.8106906507495 14.569956142586314 M-83.8106906507495 14.569956142586314 C-84.15086578923884 13.86357518893126, -84.49104092772816 13.157194235276208, -84.68681012499809 12.750675308355417 M-83.8106906507495 14.569956142586314 C-84.09549453400489 13.978554785179618, -84.38029841726028 13.387153427772922, -84.68681012499809 12.750675308355417 M-84.68681012499809 12.750675308355417 C-84.90061787755722 12.222566025842662, -85.11442563011637 11.694456743329905, -85.44456779456745 10.878999214271209 M-84.68681012499809 12.750675308355417 C-84.95358501712658 12.09173616705639, -85.22035990925507 11.432797025757363, -85.44456779456745 10.878999214271209 M-85.44456779456745 10.878999214271209 C-85.64429225683216 10.277460955701466, -85.84401671909689 9.675922697131725, -86.08084987065482 8.962618978877522 M-85.44456779456745 10.878999214271209 C-85.66708337960024 10.208817725196306, -85.88959896463302 9.538636236121404, -86.08084987065482 8.962618978877522 M-86.08084987065482 8.962618978877522 C-86.25567328073193 8.295941547308248, -86.43049669080905 7.629264115738974, -86.59304173372743 7.009409419623911 M-86.08084987065482 8.962618978877522 C-86.270055913797 8.24109433395854, -86.45926195693919 7.519569689039555, -86.59304173372743 7.009409419623911 M-86.59304173372743 7.009409419623911 C-86.71957154722857 6.35970556938113, -86.84610136072972 5.710001719138347, -86.97903867755518 5.027396693551461 M-86.59304173372743 7.009409419623911 C-86.7256583198628 6.328451278344226, -86.85827490599817 5.64749313706454, -86.97903867755518 5.027396693551461 M-86.97903867755518 5.027396693551461 C-87.05552613424369 4.434175083632041, -87.13201359093222 3.840953473712619, -87.23725455789975 3.024725316091999 M-86.97903867755518 5.027396693551461 C-87.08041781934926 4.241120089372432, -87.18179696114336 3.4548434851934013, -87.23725455789975 3.024725316091999 M-87.23725455789975 3.024725316091999 C-87.26341626350538 2.6172356339355325, -87.28957796911102 2.209745951779066, -87.36662831032167 1.0096246935071416 M-87.23725455789975 3.024725316091999 C-87.27146137551934 2.4919265204205985, -87.30566819313894 1.9591277247491985, -87.36662831032167 1.0096246935071416 M-87.36662831032167 1.0096246935071416 C-87.36662831032167 0.434957898818485, -87.36662831032167 -0.13970889587017155, -87.36662831032167 -1.0096246935071262 M-87.36662831032167 1.0096246935071416 C-87.36662831032167 0.2911191698793022, -87.36662831032167 -0.4273863537485372, -87.36662831032167 -1.0096246935071262 M-87.36662831032167 -1.0096246935071262 C-87.32746775502238 -1.6195819521248889, -87.28830719972309 -2.2295392107426517, -87.23725455789975 -3.024725316091956 M-87.36662831032167 -1.0096246935071262 C-87.33087440205951 -1.5665206747257314, -87.29512049379733 -2.1234166559443364, -87.23725455789975 -3.024725316091956 M-87.23725455789975 -3.024725316091956 C-87.15360282568022 -3.6735116322836587, -87.0699510934607 -4.322297948475361, -86.97903867755518 -5.027396693551446 M-87.23725455789975 -3.024725316091956 C-87.16994245858545 -3.5467846660961495, -87.10263035927116 -4.068844016100343, -86.97903867755518 -5.027396693551446 M-86.97903867755518 -5.027396693551446 C-86.83272043927532 -5.77870992274789, -86.68640220099547 -6.530023151944334, -86.59304173372745 -7.009409419623896 M-86.97903867755518 -5.027396693551446 C-86.83597919105928 -5.761976921074736, -86.69291970456337 -6.496557148598027, -86.59304173372745 -7.009409419623896 M-86.59304173372745 -7.009409419623896 C-86.42437849697949 -7.6525954404530605, -86.25571526023154 -8.295781461282225, -86.08084987065482 -8.962618978877506 M-86.59304173372745 -7.009409419623896 C-86.45986852436944 -7.517256584540017, -86.32669531501143 -8.025103749456138, -86.08084987065482 -8.962618978877506 M-86.08084987065482 -8.962618978877506 C-85.89949634312985 -9.508826909022076, -85.71814281560489 -10.055034839166646, -85.44456779456746 -10.878999214271168 M-86.08084987065482 -8.962618978877506 C-85.91566229214808 -9.460137646273338, -85.75047471364135 -9.95765631366917, -85.44456779456746 -10.878999214271168 M-85.44456779456746 -10.878999214271168 C-85.16921899150528 -11.55911608134171, -84.89387018844309 -12.239232948412251, -84.68681012499809 -12.750675308355401 M-85.44456779456746 -10.878999214271168 C-85.27586265047749 -11.295704181865442, -85.10715750638754 -11.712409149459718, -84.68681012499809 -12.750675308355401 M-84.68681012499809 -12.750675308355401 C-84.40304886135175 -13.339911643835434, -84.11928759770541 -13.929147979315465, -83.8106906507495 -14.5699561425863 M-84.68681012499809 -12.750675308355401 C-84.36067046347316 -13.427911293782794, -84.03453080194822 -14.105147279210188, -83.8106906507495 -14.5699561425863 M-83.8106906507495 -14.5699561425863 C-83.56386549528449 -15.008219199871657, -83.31704033981947 -15.446482257157015, -82.8198095346684 -16.329365901781546 M-83.8106906507495 -14.5699561425863 C-83.61050643088603 -14.925403495804261, -83.41032221102255 -15.280850849022222, -82.8198095346684 -16.329365901781546 M-82.8198095346684 -16.329365901781546 C-82.39211324120818 -16.986422261072104, -81.96441694774798 -17.64347862036266, -81.71823851980412 -18.021674793848344 M-82.8198095346684 -16.329365901781546 C-82.52940110480519 -16.775511235633868, -82.23899267494198 -17.22165656948619, -81.71823851980412 -18.021674793848344 M-81.71823851980412 -18.021674793848344 C-81.4016114629169 -18.445926204758916, -81.0849844060297 -18.870177615669487, -80.51050419774295 -19.639928758550102 M-81.71823851980412 -18.021674793848344 C-81.4501349995694 -18.3809090862297, -81.1820314793347 -18.740143378611055, -80.51050419774295 -19.639928758550102 M-80.51050419774295 -19.639928758550102 C-79.99135207203291 -20.24975438600191, -79.47219994632287 -20.859580013453723, -79.20156940787246 -21.177478043231467 M-80.51050419774295 -19.639928758550102 C-80.0396917494894 -20.19297185025594, -79.56887930123587 -20.74601494196178, -79.20156940787246 -21.177478043231467 M-79.20156940787246 -21.177478043231467 C-78.79402505600252 -21.59830104655073, -78.3864807041326 -22.019124049869994, -77.79681284400984 -22.628004528078403 M-79.20156940787246 -21.177478043231467 C-78.69723414906257 -21.698245604647486, -78.19289889025268 -22.2190131660635, -77.79681284400984 -22.628004528078403 M-77.79681284400984 -22.628004528078403 C-77.49125307700172 -22.905505823806767, -77.18569330999361 -23.183007119535127, -76.30200695219536 -23.98554768862771 M-77.79681284400984 -22.628004528078403 C-77.22821846854802 -23.14438689569004, -76.65962409308622 -23.660769263301678, -76.30200695219536 -23.98554768862771 M-76.30200695219536 -23.98554768862771 C-75.98468997982293 -24.238599529935456, -75.66737300745051 -24.491651371243197, -74.72329421047331 -25.244529088840626 M-76.30200695219536 -23.98554768862771 C-75.96209526300525 -24.25661821532689, -75.62218357381515 -24.527688742026065, -74.72329421047331 -25.244529088840626 M-74.72329421047331 -25.244529088840626 C-74.08239765970357 -25.69159077869307, -73.44150110893383 -26.138652468545512, -73.0671618881323 -26.39977530409297 M-74.72329421047331 -25.244529088840626 C-74.14861427631706 -25.645400933414635, -73.57393434216081 -26.04627277798864, -73.0671618881323 -26.39977530409297 M-73.0671618881323 -26.39977530409297 C-72.57627159328644 -26.697355885620112, -72.08538129844058 -26.99493646714725, -71.34041538812404 -27.446539179886763 M-73.0671618881323 -26.39977530409297 C-72.42447119092046 -26.789378181612555, -71.78178049370861 -27.17898105913214, -71.34041538812404 -27.446539179886763 M-71.34041538812404 -27.446539179886763 C-70.74934381828194 -27.75490083927398, -70.15827224843983 -28.0632624986612, -69.55015028220309 -28.3805193389262 M-71.34041538812404 -27.446539179886763 C-70.65764173646954 -27.80274175661752, -69.97486808481504 -28.15894433334828, -69.55015028220309 -28.3805193389262 M-69.55015028220309 -28.3805193389262 C-68.91397147462195 -28.662136825468554, -68.27779266704079 -28.94375431201091, -67.7037231537003 -29.19787785639968 M-69.55015028220309 -28.3805193389262 C-68.86125371308307 -28.685473414684978, -68.17235714396304 -28.99042749044376, -67.7037231537003 -29.19787785639968 M-67.7037231537003 -29.19787785639968 C-67.02955489178449 -29.445978008727792, -66.35538662986869 -29.69407816105591, -65.80872136774407 -29.895256030836055 M-67.7037231537003 -29.19787785639968 C-67.1208680807347 -29.412373911104254, -66.5380130077691 -29.62686996580883, -65.80872136774407 -29.895256030836055 M-65.80872136774407 -29.895256030836055 C-65.13479924157542 -30.095272580393484, -64.46087711540677 -30.295289129950913, -63.87293189314951 -30.469788185729417 M-65.80872136774407 -29.895256030836055 C-65.19101942862287 -30.078586723983584, -64.57331748950168 -30.261917417131112, -63.87293189314951 -30.469788185729417 M-63.87293189314951 -30.469788185729417 C-63.28092598340726 -30.60490967142849, -62.688920073665 -30.740031157127564, -61.90430930409324 -30.919113445218553 M-63.87293189314951 -30.469788185729417 C-63.28939397336677 -30.60297690797903, -62.705856053584036 -30.736165630228644, -61.90430930409324 -30.919113445218553 M-61.90430930409324 -30.919113445218553 C-61.2138719128614 -31.03073800821098, -60.52343452162956 -31.142362571203407, -59.91094309306196 -31.24138543543225 M-61.90430930409324 -30.919113445218553 C-61.27275180833131 -31.021218763331813, -60.641194312569375 -31.123324081445077, -59.91094309306196 -31.24138543543225 M-59.91094309306196 -31.24138543543225 C-59.136358725892386 -31.316108657759102, -58.36177435872281 -31.390831880085955, -57.90102442939246 -31.435279871635593 M-59.91094309306196 -31.24138543543225 C-59.40933547711782 -31.28977491887096, -58.90772786117368 -31.338164402309673, -57.90102442939246 -31.435279871635593 M-57.90102442939246 -31.435279871635593 C-57.37323181809733 -31.452205153393834, -56.845439206802205 -31.46913043515207, -55.88281250000001 -31.5 M-57.90102442939246 -31.435279871635593 C-57.17169051545125 -31.458668190693345, -56.442356601510056 -31.482056509751096, -55.88281250000001 -31.5 M-55.88281250000001 -31.5 C-55.88281250000001 -31.5, -55.8828125 -31.5, -55.8828125 -31.5 M-55.88281250000001 -31.5 C-55.88281250000001 -31.5, -55.8828125 -31.5, -55.8828125 -31.5" stroke="#9370DB" stroke-width="1.3" fill="none" stroke-dasharray="0 0" style=""></path></g><g class="label" style="" transform="translate(-72.0078125, -24)"><rect></rect><foreignObject width="144.015625" height="48"><div xmlns="http://www.w3.org/1999/xhtml" style="display: table-cell; white-space: nowrap; line-height: 1.5; max-width: 200px; text-align: center;"><span class="nodeLabel"><p>方案漏洞检查<br/>看哪里最容易不确定</p></span></div></foreignObject></g></g><g class="node default" id="container-flowchart-B-1" data-look="classic" transform="translate(138, 148)"><rect class="basic label-container" style="" x="-62.0078125" y="-27" width="124.015625" height="54"></rect><g class="label" style="" transform="translate(-32.0078125, -12)"><rect></rect><foreignObject width="64.015625" height="24"><div xmlns="http://www.w3.org/1999/xhtml" style="display: table-cell; white-space: nowrap; line-height: 1.5; max-width: 200px; text-align: center;"><span class="nodeLabel"><p>规则理解</p></span></div></foreignObject></g></g><g class="node default" id="container-flowchart-C-3" data-look="classic" transform="translate(436.0078125, 148)"><rect class="basic label-container" style="" x="-62.0078125" y="-27" width="124.015625" height="54"></rect><g class="label" style="" transform="translate(-32.0078125, -12)"><rect></rect><foreignObject width="64.015625" height="24"><div xmlns="http://www.w3.org/1999/xhtml" style="display: table-cell; white-space: nowrap; line-height: 1.5; max-width: 200px; text-align: center;"><span class="nodeLabel"><p>现场动线</p></span></div></foreignObject></g></g><g class="node default" id="container-flowchart-D-5" data-look="classic" transform="translate(694.0078125, 148)"><rect class="basic label-container" style="" x="-62.0078125" y="-27" width="124.015625" height="54"></rect><g class="label" style="" transform="translate(-32.0078125, -12)"><rect></rect><foreignObject width="64.015625" height="24"><div xmlns="http://www.w3.org/1999/xhtml" style="display: table-cell; white-space: nowrap; line-height: 1.5; max-width: 200px; text-align: center;"><span class="nodeLabel"><p>学生参与</p></span></div></foreignObject></g></g><g class="node default" id="container-flowchart-E-7" data-look="classic" transform="translate(964, 148)"><rect class="basic label-container" style="" x="-62.0078125" y="-27" width="124.015625" height="54"></rect><g class="label" style="" transform="translate(-32.0078125, -12)"><rect></rect><foreignObject width="64.015625" height="24"><div xmlns="http://www.w3.org/1999/xhtml" style="display: table-cell; white-space: nowrap; line-height: 1.5; max-width: 200px; text-align: center;"><span class="nodeLabel"><p>家长介入</p></span></div></foreignObject></g></g><g class="node default" id="container-flowchart-F-9" data-look="classic" transform="translate(1274, 148)"><rect class="basic label-container" style="" x="-62.0078125" y="-27" width="124.015625" height="54"></rect><g class="label" style="" transform="translate(-32.0078125, -12)"><rect></rect><foreignObject width="64.015625" height="24"><div xmlns="http://www.w3.org/1999/xhtml" style="display: table-cell; white-space: nowrap; line-height: 1.5; max-width: 200px; text-align: center;"><span class="nodeLabel"><p>导师判断</p></span></div></foreignObject></g></g><g class="node default" id="container-flowchart-G-11" data-look="classic" transform="translate(1556.0078125, 148)"><rect class="basic label-container" style="" x="-62.0078125" y="-27" width="124.015625" height="54"></rect><g class="label" style="" transform="translate(-32.0078125, -12)"><rect></rect><foreignObject width="64.015625" height="24"><div xmlns="http://www.w3.org/1999/xhtml" style="display: table-cell; white-space: nowrap; line-height: 1.5; max-width: 200px; text-align: center;"><span class="nodeLabel"><p>时间收束</p></span></div></foreignObject></g></g><g class="node default risk" id="container-flowchart-B1-13" data-look="classic" transform="translate(138, 276)"><rect class="basic label-container" style="fill:#fff1f2 !important;stroke:#e11d48 !important;stroke-width:2px !important" x="-102.0078125" y="-51" width="204.015625" height="102"></rect><g class="label" style="color:#7f1d1d !important" transform="translate(-72.0078125, -36)"><rect></rect><foreignObject width="144.015625" height="72"><div style="color: rgb(127, 29, 29) !important; display: table-cell; white-space: nowrap; line-height: 1.5; max-width: 200px; text-align: center;" xmlns="http://www.w3.org/1999/xhtml"><span style="color:#7f1d1d !important" class="nodeLabel"><p>风险<br/>学生只知道跑和传球<br/>不理解为何拿卡</p></span></div></foreignObject></g></g><g class="node default control" id="container-flowchart-B2-15" data-look="classic" transform="translate(138, 440)"><rect class="basic label-container" style="fill:#ecfdf5 !important;stroke:#059669 !important;stroke-width:2px !important" x="-130" y="-63" width="260" height="126"></rect><g class="label" style="color:#064e3b !important" transform="translate(-100, -48)"><rect></rect><foreignObject width="200" height="96"><div style="color: rgb(6, 78, 59) !important; display: table; white-space: break-spaces; line-height: 1.5; max-width: 200px; text-align: center; width: 200px;" xmlns="http://www.w3.org/1999/xhtml"><span style="color:#064e3b !important" class="nodeLabel"><p>控制点<br/>主持只讲一句规则<br/>完成挑战 解锁卡包 产出行动牌</p></span></div></foreignObject></g></g><g class="node default risk" id="container-flowchart-C1-17" data-look="classic" transform="translate(436.0078125, 276)"><rect class="basic label-container" style="fill:#fff1f2 !important;stroke:#e11d48 !important;stroke-width:2px !important" x="-102.0625" y="-51" width="204.125" height="102"></rect><g class="label" style="color:#7f1d1d !important" transform="translate(-72.0625, -36)"><rect></rect><foreignObject width="144.125" height="72"><div style="color: rgb(127, 29, 29) !important; display: table-cell; white-space: nowrap; line-height: 1.5; max-width: 200px; text-align: center;" xmlns="http://www.w3.org/1999/xhtml"><span style="color:#7f1d1d !important" class="nodeLabel"><p>风险<br/>14队同时接力<br/>第三关42名代表移动</p></span></div></foreignObject></g></g><g class="node default control" id="container-flowchart-C2-19" data-look="classic" transform="translate(436.0078125, 440)"><rect class="basic label-container" style="fill:#ecfdf5 !important;stroke:#059669 !important;stroke-width:2px !important" x="-118.0078125" y="-51" width="236.015625" height="102"></rect><g class="label" style="color:#064e3b !important" transform="translate(-88.0078125, -36)"><rect></rect><foreignObject width="176.015625" height="72"><div style="color: rgb(6, 78, 59) !important; display: table-cell; white-space: nowrap; line-height: 1.5; max-width: 200px; text-align: center;" xmlns="http://www.w3.org/1999/xhtml"><span style="color:#064e3b !important" class="nodeLabel"><p>控制点<br/>接力只走本队正前方直线<br/>三方支援按路线卡走</p></span></div></foreignObject></g></g><g class="node default risk" id="container-flowchart-D1-21" data-look="classic" transform="translate(694.0078125, 276)"><rect class="basic label-container" style="fill:#fff1f2 !important;stroke:#e11d48 !important;stroke-width:2px !important" x="-78.0078125" y="-51" width="156.015625" height="102"></rect><g class="label" style="color:#7f1d1d !important" transform="translate(-48.0078125, -36)"><rect></rect><foreignObject width="96.015625" height="72"><div style="color: rgb(127, 29, 29) !important; display: table-cell; white-space: nowrap; line-height: 1.5; max-width: 200px; text-align: center;" xmlns="http://www.w3.org/1999/xhtml"><span style="color:#7f1d1d !important" class="nodeLabel"><p>风险<br/>强势学生包办<br/>弱队成员旁观</p></span></div></foreignObject></g></g><g class="node default control" id="container-flowchart-D2-23" data-look="classic" transform="translate(694.0078125, 440)"><rect class="basic label-container" style="fill:#ecfdf5 !important;stroke:#059669 !important;stroke-width:2px !important" x="-89.9921875" y="-63" width="179.984375" height="126"></rect><g class="label" style="color:#064e3b !important" transform="translate(-59.9921875, -48)"><rect></rect><foreignObject width="119.984375" height="96"><div style="color: rgb(6, 78, 59) !important; display: table-cell; white-space: nowrap; line-height: 1.5; max-width: 200px; text-align: center;" xmlns="http://www.w3.org/1999/xhtml"><span style="color:#064e3b !important" class="nodeLabel"><p>控制点<br/>6人接力<br/>7人触球<br/>3名代表分头支援</p></span></div></foreignObject></g></g><g class="node default risk" id="container-flowchart-E1-25" data-look="classic" transform="translate(964, 276)"><rect class="basic label-container" style="fill:#fff1f2 !important;stroke:#e11d48 !important;stroke-width:2px !important" x="-118.0078125" y="-51" width="236.015625" height="102"></rect><g class="label" style="color:#7f1d1d !important" transform="translate(-88.0078125, -36)"><rect></rect><foreignObject width="176.015625" height="72"><div style="color: rgb(127, 29, 29) !important; display: table-cell; white-space: nowrap; line-height: 1.5; max-width: 200px; text-align: center;" xmlns="http://www.w3.org/1999/xhtml"><span style="color:#7f1d1d !important" class="nodeLabel"><p>风险<br/>家长长篇指导<br/>把学生行动改成家长期待</p></span></div></foreignObject></g></g><g class="node default control" id="container-flowchart-E2-27" data-look="classic" transform="translate(964, 440)"><rect class="basic label-container" style="fill:#ecfdf5 !important;stroke:#059669 !important;stroke-width:2px !important" x="-130" y="-63" width="260" height="126"></rect><g class="label" style="color:#064e3b !important" transform="translate(-100, -48)"><rect></rect><foreignObject width="200" height="96"><div style="color: rgb(6, 78, 59) !important; display: table; white-space: break-spaces; line-height: 1.5; max-width: 200px; text-align: center; width: 200px;" xmlns="http://www.w3.org/1999/xhtml"><span style="color:#064e3b !important" class="nodeLabel"><p>控制点<br/>家长只补一句<br/>九年级我愿意在____时帮你____</p></span></div></foreignObject></g></g><g class="node default risk" id="container-flowchart-F1-29" data-look="classic" transform="translate(1274, 276)"><rect class="basic label-container" style="fill:#fff1f2 !important;stroke:#e11d48 !important;stroke-width:2px !important" x="-94.0078125" y="-51" width="188.015625" height="102"></rect><g class="label" style="color:#7f1d1d !important" transform="translate(-64.0078125, -36)"><rect></rect><foreignObject width="128.015625" height="72"><div style="color: rgb(127, 29, 29) !important; display: table-cell; white-space: nowrap; line-height: 1.5; max-width: 200px; text-align: center;" xmlns="http://www.w3.org/1999/xhtml"><span style="color:#7f1d1d !important" class="nodeLabel"><p>风险<br/>导师验收标准不一<br/>认证变成盖章</p></span></div></foreignObject></g></g><g class="node default control" id="container-flowchart-F2-31" data-look="classic" transform="translate(1274, 440)"><rect class="basic label-container" style="fill:#ecfdf5 !important;stroke:#059669 !important;stroke-width:2px !important" x="-130" y="-63" width="260" height="126"></rect><g class="label" style="color:#064e3b !important" transform="translate(-100, -48)"><rect></rect><foreignObject width="200" height="96"><div style="color: rgb(6, 78, 59) !important; display: table; white-space: break-spaces; line-height: 1.5; max-width: 200px; text-align: center; width: 200px;" xmlns="http://www.w3.org/1999/xhtml"><span style="color:#064e3b !important" class="nodeLabel"><p>控制点<br/>红袋/蓝袋/金袋各有验收口令<br/>认证三问</p></span></div></foreignObject></g></g><g class="node default risk" id="container-flowchart-G1-33" data-look="classic" transform="translate(1556.0078125, 276)"><rect class="basic label-container" style="fill:#fff1f2 !important;stroke:#e11d48 !important;stroke-width:2px !important" x="-78.0078125" y="-51" width="156.015625" height="102"></rect><g class="label" style="color:#7f1d1d !important" transform="translate(-48.0078125, -36)"><rect></rect><foreignObject width="96.015625" height="72"><div style="color: rgb(127, 29, 29) !important; display: table-cell; white-space: nowrap; line-height: 1.5; max-width: 200px; text-align: center;" xmlns="http://www.w3.org/1999/xhtml"><span style="color:#7f1d1d !important" class="nodeLabel"><p>风险<br/>入境墙拥堵<br/>荣誉点亮拖时</p></span></div></foreignObject></g></g><g class="node default control" id="container-flowchart-G2-35" data-look="classic" transform="translate(1556.0078125, 440)"><rect class="basic label-container" style="fill:#ecfdf5 !important;stroke:#059669 !important;stroke-width:2px !important" x="-102.0078125" y="-51" width="204.015625" height="102"></rect><g class="label" style="color:#064e3b !important" transform="translate(-72.0078125, -36)"><rect></rect><foreignObject width="144.015625" height="72"><div style="color: rgb(6, 78, 59) !important; display: table-cell; white-space: nowrap; line-height: 1.5; max-width: 200px; text-align: center;" xmlns="http://www.w3.org/1999/xhtml"><span style="color:#064e3b !important" class="nodeLabel"><p>控制点<br/>每次2-3队上墙<br/>基础通关加多项荣誉</p></span></div></foreignObject></g></g><g class="node default" id="container-flowchart-H-37" data-look="classic" transform="translate(829.00390625, 580)"><rect class="basic label-container" style="" x="-94.0078125" y="-27" width="188.015625" height="54"></rect><g class="label" style="" transform="translate(-64.0078125, -12)"><rect></rect><foreignObject width="128.015625" height="24"><div xmlns="http://www.w3.org/1999/xhtml" style="display: table-cell; white-space: nowrap; line-height: 1.5; max-width: 200px; text-align: center;"><span class="nodeLabel"><p>当前仍需现场确认</p></span></div></foreignObject></g></g><g class="node default open" id="container-flowchart-H1-49" data-look="classic" transform="translate(404.1328125, 696)"><rect class="basic label-container" style="fill:#fffbeb !important;stroke:#d97706 !important;stroke-width:2px !important" x="-125.7265625" y="-27" width="251.453125" height="54"></rect><g class="label" style="color:#78350f !important" transform="translate(-95.7265625, -12)"><rect></rect><foreignObject width="191.453125" height="24"><div style="color: rgb(120, 53, 15) !important; display: table-cell; white-space: nowrap; line-height: 1.5; max-width: 200px; text-align: center;" xmlns="http://www.w3.org/1999/xhtml"><span style="color:#78350f !important" class="nodeLabel"><p>篮球馆实际尺寸与14队间距</p></span></div></foreignObject></g></g><g class="node default open" id="container-flowchart-H2-51" data-look="classic" transform="translate(689.8671875, 696)"><rect class="basic label-container" style="fill:#fffbeb !important;stroke:#d97706 !important;stroke-width:2px !important" x="-110.0078125" y="-27" width="220.015625" height="54"></rect><g class="label" style="color:#78350f !important" transform="translate(-80.0078125, -12)"><rect></rect><foreignObject width="160.015625" height="24"><div style="color: rgb(120, 53, 15) !important; display: table-cell; white-space: nowrap; line-height: 1.5; max-width: 200px; text-align: center;" xmlns="http://www.w3.org/1999/xhtml"><span style="color:#78350f !important" class="nodeLabel"><p>家长人数与观察区容量</p></span></div></foreignObject></g></g><g class="node default open" id="container-flowchart-H3-53" data-look="classic" transform="translate(979.875, 696)"><rect class="basic label-container" style="fill:#fffbeb !important;stroke:#d97706 !important;stroke-width:2px !important" x="-130" y="-39" width="260" height="78"></rect><g class="label" style="color:#78350f !important" transform="translate(-100, -24)"><rect></rect><foreignObject width="200" height="48"><div style="color: rgb(120, 53, 15) !important; display: table; white-space: break-spaces; line-height: 1.5; max-width: 200px; text-align: center; width: 200px;" xmlns="http://www.w3.org/1999/xhtml"><span style="color:#78350f !important" class="nodeLabel"><p>导师是否提前20分钟能看懂岗位</p></span></div></foreignObject></g></g><g class="node default open" id="container-flowchart-H4-55" data-look="classic" transform="translate(1289.875, 696)"><rect class="basic label-container" style="fill:#fffbeb !important;stroke:#d97706 !important;stroke-width:2px !important" x="-130" y="-39" width="260" height="78"></rect><g class="label" style="color:#78350f !important" transform="translate(-100, -24)"><rect></rect><foreignObject width="200" height="48"><div style="color: rgb(120, 53, 15) !important; display: table; white-space: break-spaces; line-height: 1.5; max-width: 200px; text-align: center; width: 200px;" xmlns="http://www.w3.org/1999/xhtml"><span style="color:#78350f !important" class="nodeLabel"><p>软球数量和支援路线卡是否提前到位</p></span></div></foreignObject></g></g></g></g></g><defs><filter id="container-drop-shadow" height="130%" width="130%"><feDropShadow dx="4" dy="4" stdDeviation="0" flood-opacity="0.06" flood-color="#000000"></feDropShadow></filter></defs><defs><filter id="container-drop-shadow-small" height="150%" width="150%"><feDropShadow dx="2" dy="2" stdDeviation="0" flood-opacity="0.06" flood-color="#000000"></feDropShadow></filter></defs></svg>