<svg xmlns="http://www.w3.org/2000/svg" width="3000mm" height="2000mm" viewBox="0 0 3000 2000">
  <defs>
    <radialGradient id="bgGlow" cx="58%" cy="48%" r="78%">
      <stop offset="0%" stop-color="#173B75"/>
      <stop offset="48%" stop-color="#071B45"/>
      <stop offset="100%" stop-color="#030A22"/>
    </radialGradient>
    <linearGradient id="titleGold" x1="0" y1="0" x2="1" y2="1">
      <stop offset="0%" stop-color="#FFF3B0"/>
      <stop offset="55%" stop-color="#FFD24A"/>
      <stop offset="100%" stop-color="#FFB703"/>
    </linearGradient>
    <filter id="softGlow" x="-40%" y="-40%" width="180%" height="180%">
      <feGaussianBlur stdDeviation="9" result="blur"/>
      <feMerge><feMergeNode in="blur"/><feMergeNode in="SourceGraphic"/></feMerge>
    </filter>
    <filter id="titleShadow" x="-20%" y="-20%" width="140%" height="150%">
      <feDropShadow dx="0" dy="8" stdDeviation="8" flood-color="#000814" flood-opacity="0.45"/>
    </filter>
    <style>
      .title { font-family: 'Hiragino Sans GB', 'PingFang SC', 'Microsoft YaHei', sans-serif; font-weight: 800; letter-spacing: 12px; }
      .subtitle { font-family: 'Hiragino Sans GB', 'PingFang SC', 'Microsoft YaHei', sans-serif; font-weight: 500; letter-spacing: 2px; }
      .note { font-family: 'Hiragino Sans GB', 'PingFang SC', 'Microsoft YaHei', sans-serif; font-weight: 500; letter-spacing: 1px; }
      .signature-star { fill: #FFD34E; stroke: #FFF1A6; stroke-width: 4; filter: url(#softGlow); }
      .signature-star-inner { fill: none; stroke: rgba(110,74,0,0.28); stroke-width: 2; }
      .small-star { fill: #FFFFFF; }
      .gold-dot { fill: #FFD86B; }
    </style>
  </defs>

  <rect width="3000" height="2000" fill="url(#bgGlow)"/>
  <ellipse cx="1680" cy="1120" rx="1320" ry="520" fill="#0B2D67" opacity="0.32" transform="rotate(-22 1680 1120)"/>
  <path d="M180 1570 C 760 1270, 1120 1180, 1500 1030 S 2260 760, 2820 540" fill="none" stroke="#8EC5FF" stroke-width="145" stroke-opacity="0.10" stroke-linecap="round"/>
  <path d="M230 1535 C 820 1310, 1120 1180, 1515 1030 S 2260 760, 2790 555" fill="none" stroke="#FFE27A" stroke-width="54" stroke-opacity="0.11" stroke-linecap="round"/>
  <circle class="small-star" cx="2727.8" cy="413.9" r="2.4" fill="#FFFFFF" opacity="0.56"/>
  <circle class="small-star" cx="2372.8" cy="894.4" r="4.0" fill="#FFFFFF" opacity="0.50"/>
  <circle class="small-star" cx="1127.4" cy="156.4" r="2.4" fill="#FFD76A" opacity="0.28"/>
  <circle class="small-star" cx="731.6" cy="1225.5" r="2.4" fill="#FFFFFF" opacity="0.43"/>
  <circle class="small-star" cx="2173.1" cy="1269.1" r="5.0" fill="#FFFFFF" opacity="0.45"/>
  <circle class="small-star" cx="2432.9" cy="1659.6" r="2.4" fill="#FFD76A" opacity="0.49"/>
  <circle class="small-star" cx="223.2" cy="1237.9" r="5.0" fill="#FFFFFF" opacity="0.59"/>
  <circle class="small-star" cx="1150.3" cy="887.4" r="5.0" fill="#FFFFFF" opacity="0.40"/>
  <circle class="small-star" cx="506.6" cy="492.0" r="4.0" fill="#FFD76A" opacity="0.30"/>
  <circle class="small-star" cx="1931.5" cy="1768.5" r="5.0" fill="#FFFFFF" opacity="0.45"/>
  <circle class="small-star" cx="970.9" cy="1002.9" r="4.0" fill="#FFFFFF" opacity="0.60"/>
  <circle class="small-star" cx="967.1" cy="853.9" r="5.0" fill="#FFD76A" opacity="0.32"/>
  <circle class="small-star" cx="2037.8" cy="133.6" r="2.4" fill="#FFFFFF" opacity="0.30"/>
  <circle class="small-star" cx="623.0" cy="269.6" r="3.2" fill="#FFD76A" opacity="0.70"/>
  <circle class="small-star" cx="1533.2" cy="1310.5" r="2.4" fill="#FFFFFF" opacity="0.70"/>
  <circle class="small-star" cx="1859.7" cy="336.4" r="4.0" fill="#FFFFFF" opacity="0.60"/>
  <circle class="small-star" cx="381.4" cy="716.6" r="3.2" fill="#FFD76A" opacity="0.65"/>
  <circle class="small-star" cx="2589.5" cy="1386.9" r="5.0" fill="#FFD76A" opacity="0.41"/>
  <circle class="small-star" cx="1418.1" cy="1817.9" r="4.0" fill="#FFD76A" opacity="0.68"/>
  <circle class="small-star" cx="1610.9" cy="792.1" r="5.0" fill="#FFD76A" opacity="0.74"/>
  <circle class="small-star" cx="1238.4" cy="1785.1" r="3.2" fill="#FFFFFF" opacity="0.43"/>
  <circle class="small-star" cx="1503.9" cy="1259.4" r="5.0" fill="#FFD76A" opacity="0.67"/>
  <circle class="small-star" cx="2321.2" cy="1561.3" r="2.4" fill="#FFFFFF" opacity="0.32"/>
  <circle class="small-star" cx="2434.9" cy="1053.4" r="3.2" fill="#FFFFFF" opacity="0.41"/>
  <circle class="small-star" cx="441.6" cy="684.2" r="3.2" fill="#FFD76A" opacity="0.63"/>
  <circle class="small-star" cx="1164.5" cy="1813.8" r="5.0" fill="#FFD76A" opacity="0.44"/>
  <circle class="small-star" cx="2778.7" cy="436.3" r="4.0" fill="#FFFFFF" opacity="0.43"/>
  <circle class="small-star" cx="739.4" cy="1855.2" r="3.2" fill="#FFD76A" opacity="0.53"/>
  <circle class="small-star" cx="2180.2" cy="1031.4" r="4.0" fill="#FFD76A" opacity="0.47"/>
  <circle class="small-star" cx="2268.7" cy="1863.9" r="2.4" fill="#FFD76A" opacity="0.29"/>
  <circle class="small-star" cx="582.2" cy="1141.1" r="3.2" fill="#FFD76A" opacity="0.50"/>
  <circle class="small-star" cx="1840.5" cy="1061.4" r="2.4" fill="#FFFFFF" opacity="0.60"/>
  <circle class="small-star" cx="2847.0" cy="287.2" r="2.4" fill="#FFD76A" opacity="0.33"/>
  <circle class="small-star" cx="2602.5" cy="790.4" r="5.0" fill="#FFFFFF" opacity="0.64"/>
  <circle class="small-star" cx="2544.3" cy="914.1" r="4.0" fill="#FFFFFF" opacity="0.33"/>
  <circle class="small-star" cx="1571.2" cy="1788.2" r="3.2" fill="#FFFFFF" opacity="0.44"/>
  <circle class="small-star" cx="1079.0" cy="1176.9" r="4.0" fill="#FFFFFF" opacity="0.62"/>
  <circle class="small-star" cx="1476.8" cy="756.0" r="3.2" fill="#FFD76A" opacity="0.73"/>
  <circle class="small-star" cx="1854.1" cy="782.0" r="3.2" fill="#FFFFFF" opacity="0.63"/>
  <circle class="small-star" cx="1507.5" cy="122.8" r="5.0" fill="#FFFFFF" opacity="0.61"/>
  <circle class="small-star" cx="125.1" cy="845.8" r="5.0" fill="#FFD76A" opacity="0.73"/>
  <circle class="small-star" cx="2405.3" cy="1118.2" r="4.0" fill="#FFD76A" opacity="0.43"/>
  <circle class="small-star" cx="1142.7" cy="246.1" r="5.0" fill="#FFFFFF" opacity="0.49"/>
  <circle class="small-star" cx="1458.1" cy="1764.4" r="5.0" fill="#FFFFFF" opacity="0.36"/>
  <circle class="small-star" cx="1558.6" cy="614.6" r="3.2" fill="#FFD76A" opacity="0.27"/>
  <circle class="small-star" cx="172.7" cy="879.1" r="5.0" fill="#FFD76A" opacity="0.30"/>
  <circle class="small-star" cx="445.7" cy="1056.7" r="5.0" fill="#FFFFFF" opacity="0.44"/>
  <circle class="small-star" cx="2579.0" cy="258.0" r="5.0" fill="#FFD76A" opacity="0.38"/>
  <circle class="small-star" cx="2743.6" cy="1239.5" r="3.2" fill="#FFD76A" opacity="0.52"/>
  <circle class="small-star" cx="2847.2" cy="1004.2" r="3.2" fill="#FFFFFF" opacity="0.50"/>
  <circle class="small-star" cx="1187.8" cy="728.2" r="4.0" fill="#FFD76A" opacity="0.73"/>
  <circle class="small-star" cx="848.1" cy="1060.6" r="2.4" fill="#FFFFFF" opacity="0.40"/>
  <circle class="small-star" cx="605.6" cy="684.2" r="3.2" fill="#FFFFFF" opacity="0.45"/>
  <circle class="small-star" cx="2739.2" cy="171.9" r="3.2" fill="#FFFFFF" opacity="0.49"/>
  <circle class="small-star" cx="2199.4" cy="1095.4" r="5.0" fill="#FFD76A" opacity="0.38"/>
  <circle class="small-star" cx="1821.4" cy="367.1" r="3.2" fill="#FFFFFF" opacity="0.53"/>
  <circle class="small-star" cx="1924.4" cy="1847.9" r="3.2" fill="#FFFFFF" opacity="0.53"/>
  <circle class="small-star" cx="172.0" cy="1341.0" r="2.4" fill="#FFFFFF" opacity="0.67"/>
  <circle class="small-star" cx="2556.3" cy="493.7" r="2.4" fill="#FFD76A" opacity="0.31"/>
  <circle class="small-star" cx="2419.3" cy="1318.9" r="3.2" fill="#FFFFFF" opacity="0.42"/>
  <circle class="small-star" cx="917.0" cy="975.7" r="4.0" fill="#FFFFFF" opacity="0.72"/>
  <circle class="small-star" cx="1668.3" cy="1417.9" r="4.0" fill="#FFFFFF" opacity="0.39"/>
  <circle class="small-star" cx="1532.8" cy="1081.9" r="2.4" fill="#FFFFFF" opacity="0.28"/>
  <circle class="small-star" cx="1099.2" cy="241.9" r="4.0" fill="#FFFFFF" opacity="0.47"/>
  <circle class="small-star" cx="1377.4" cy="1780.0" r="5.0" fill="#FFFFFF" opacity="0.40"/>
  <circle class="small-star" cx="748.7" cy="449.7" r="2.4" fill="#FFD76A" opacity="0.55"/>
  <circle class="small-star" cx="2674.3" cy="741.7" r="2.4" fill="#FFD76A" opacity="0.43"/>
  <circle class="small-star" cx="749.6" cy="1419.4" r="4.0" fill="#FFFFFF" opacity="0.55"/>
  <circle class="small-star" cx="1277.6" cy="180.7" r="2.4" fill="#FFFFFF" opacity="0.75"/>
  <circle class="small-star" cx="232.1" cy="1031.3" r="4.0" fill="#FFFFFF" opacity="0.40"/>
  <circle class="small-star" cx="1027.9" cy="369.6" r="2.4" fill="#FFFFFF" opacity="0.50"/>
  <circle class="small-star" cx="1760.1" cy="1202.5" r="5.0" fill="#FFD76A" opacity="0.33"/>
  <circle class="small-star" cx="1156.5" cy="1515.5" r="5.0" fill="#FFFFFF" opacity="0.61"/>
  <circle class="small-star" cx="1316.6" cy="947.9" r="2.4" fill="#FFD76A" opacity="0.61"/>
  <circle class="small-star" cx="2160.3" cy="498.6" r="3.2" fill="#FFFFFF" opacity="0.45"/>
  <circle class="small-star" cx="1917.3" cy="736.4" r="2.4" fill="#FFD76A" opacity="0.67"/>
  <circle class="small-star" cx="2547.7" cy="356.7" r="2.4" fill="#FFFFFF" opacity="0.33"/>
  <circle class="small-star" cx="2013.6" cy="1843.4" r="3.2" fill="#FFFFFF" opacity="0.28"/>
  <circle class="small-star" cx="2039.0" cy="961.8" r="5.0" fill="#FFFFFF" opacity="0.68"/>
  <circle class="small-star" cx="1129.2" cy="603.5" r="4.0" fill="#FFFFFF" opacity="0.62"/>
  <circle class="small-star" cx="82.7" cy="1411.0" r="3.2" fill="#FFFFFF" opacity="0.55"/>
  <circle class="small-star" cx="1399.8" cy="870.9" r="5.0" fill="#FFFFFF" opacity="0.46"/>
  <circle class="small-star" cx="519.9" cy="262.5" r="5.0" fill="#FFD76A" opacity="0.72"/>
  <circle class="small-star" cx="795.9" cy="518.5" r="5.0" fill="#FFFFFF" opacity="0.51"/>
  <circle class="small-star" cx="1030.7" cy="1815.8" r="4.0" fill="#FFFFFF" opacity="0.41"/>
  <circle class="small-star" cx="804.2" cy="1599.2" r="4.0" fill="#FFFFFF" opacity="0.65"/>
  <circle class="small-star" cx="443.1" cy="184.8" r="3.2" fill="#FFFFFF" opacity="0.71"/>
  <circle class="small-star" cx="159.3" cy="583.9" r="3.2" fill="#FFD76A" opacity="0.72"/>
  <circle class="small-star" cx="1854.4" cy="1485.3" r="3.2" fill="#FFD76A" opacity="0.59"/>
  <circle class="small-star" cx="878.1" cy="1560.5" r="3.2" fill="#FFFFFF" opacity="0.40"/>
  <circle class="small-star" cx="2555.2" cy="951.1" r="3.2" fill="#FFFFFF" opacity="0.30"/>
  <circle class="small-star" cx="2342.4" cy="1420.9" r="3.2" fill="#FFFFFF" opacity="0.52"/>
  <circle class="small-star" cx="2349.3" cy="1487.7" r="3.2" fill="#FFFFFF" opacity="0.51"/>
  <circle class="small-star" cx="124.1" cy="465.5" r="4.0" fill="#FFFFFF" opacity="0.70"/>
  <circle class="small-star" cx="994.0" cy="1572.3" r="5.0" fill="#FFFFFF" opacity="0.27"/>
  <circle class="small-star" cx="1452.5" cy="882.3" r="4.0" fill="#FFD76A" opacity="0.73"/>
  <circle class="small-star" cx="353.0" cy="692.5" r="2.4" fill="#FFD76A" opacity="0.72"/>
  <circle class="small-star" cx="1514.1" cy="1144.9" r="5.0" fill="#FFFFFF" opacity="0.32"/>
  <circle class="small-star" cx="1146.5" cy="979.0" r="2.4" fill="#FFFFFF" opacity="0.53"/>
  <circle class="small-star" cx="677.7" cy="1505.7" r="5.0" fill="#FFD76A" opacity="0.43"/>
  <circle class="small-star" cx="2490.9" cy="800.7" r="5.0" fill="#FFFFFF" opacity="0.27"/>
  <circle class="small-star" cx="904.8" cy="1458.4" r="3.2" fill="#FFFFFF" opacity="0.42"/>
  <circle class="small-star" cx="1222.4" cy="286.5" r="5.0" fill="#FFD76A" opacity="0.31"/>
  <circle class="small-star" cx="1661.8" cy="372.9" r="2.4" fill="#FFD76A" opacity="0.49"/>
  <circle class="small-star" cx="819.7" cy="1407.0" r="5.0" fill="#FFFFFF" opacity="0.32"/>
  <circle class="small-star" cx="1001.9" cy="979.7" r="5.0" fill="#FFFFFF" opacity="0.48"/>
  <circle class="small-star" cx="835.3" cy="916.6" r="5.0" fill="#FFFFFF" opacity="0.54"/>
  <circle class="small-star" cx="1639.0" cy="1839.9" r="5.0" fill="#FFFFFF" opacity="0.51"/>
  <circle class="small-star" cx="699.6" cy="839.0" r="4.0" fill="#FFD76A" opacity="0.43"/>
  <circle class="small-star" cx="375.2" cy="1082.4" r="5.0" fill="#FFD76A" opacity="0.55"/>
  <circle class="small-star" cx="1754.5" cy="915.1" r="2.4" fill="#FFD76A" opacity="0.60"/>
  <circle class="small-star" cx="2227.2" cy="263.7" r="5.0" fill="#FFFFFF" opacity="0.69"/>
  <circle class="small-star" cx="94.1" cy="1756.0" r="4.0" fill="#FFFFFF" opacity="0.46"/>
  <circle class="small-star" cx="2511.8" cy="567.5" r="5.0" fill="#FFD76A" opacity="0.38"/>
  <circle class="small-star" cx="1896.9" cy="785.4" r="5.0" fill="#FFFFFF" opacity="0.72"/>
  <circle class="small-star" cx="1498.8" cy="1013.6" r="4.0" fill="#FFD76A" opacity="0.44"/>
  <circle class="small-star" cx="495.9" cy="763.7" r="4.0" fill="#FFFFFF" opacity="0.42"/>
  <circle class="small-star" cx="2479.1" cy="1178.3" r="4.0" fill="#FFFFFF" opacity="0.27"/>
  <circle class="small-star" cx="2675.5" cy="1454.4" r="3.2" fill="#FFD76A" opacity="0.63"/>
  <circle class="small-star" cx="1569.1" cy="1472.1" r="2.4" fill="#FFD76A" opacity="0.31"/>
  <circle class="small-star" cx="1147.5" cy="990.5" r="2.4" fill="#FFD76A" opacity="0.46"/>
  <circle class="small-star" cx="2890.3" cy="771.6" r="5.0" fill="#FFFFFF" opacity="0.75"/>
  <circle class="small-star" cx="557.2" cy="1181.5" r="2.4" fill="#FFD76A" opacity="0.31"/>
  <circle class="small-star" cx="186.5" cy="1039.6" r="3.2" fill="#FFFFFF" opacity="0.26"/>
  <circle class="small-star" cx="842.4" cy="1044.3" r="3.2" fill="#FFFFFF" opacity="0.65"/>
  <circle class="small-star" cx="262.1" cy="832.7" r="4.0" fill="#FFFFFF" opacity="0.39"/>
  <circle class="small-star" cx="1224.1" cy="1158.3" r="3.2" fill="#FFFFFF" opacity="0.46"/>
  <circle class="small-star" cx="440.9" cy="1178.9" r="3.2" fill="#FFD76A" opacity="0.35"/>
  <circle class="small-star" cx="2815.9" cy="347.5" r="5.0" fill="#FFFFFF" opacity="0.72"/>
  <circle class="small-star" cx="1512.9" cy="1677.8" r="2.4" fill="#FFD76A" opacity="0.38"/>
  <circle class="small-star" cx="982.8" cy="1209.1" r="4.0" fill="#FFFFFF" opacity="0.42"/>
  <circle class="small-star" cx="2004.9" cy="450.7" r="2.4" fill="#FFD76A" opacity="0.61"/>
  <circle class="small-star" cx="2878.1" cy="560.6" r="3.2" fill="#FFD76A" opacity="0.37"/>
  <circle class="small-star" cx="571.3" cy="908.4" r="4.0" fill="#FFFFFF" opacity="0.56"/>
  <circle class="small-star" cx="1505.4" cy="1677.1" r="4.0" fill="#FFD76A" opacity="0.56"/>
  <circle class="small-star" cx="2878.6" cy="1216.1" r="3.2" fill="#FFD76A" opacity="0.39"/>
  <circle class="small-star" cx="2578.9" cy="1839.4" r="5.0" fill="#FFFFFF" opacity="0.50"/>
  <circle class="small-star" cx="863.0" cy="1269.6" r="5.0" fill="#FFFFFF" opacity="0.41"/>
  <circle class="small-star" cx="1684.0" cy="1026.0" r="2.4" fill="#FFFFFF" opacity="0.49"/>
  <circle class="small-star" cx="1309.9" cy="767.8" r="5.0" fill="#FFD76A" opacity="0.48"/>
  <circle class="small-star" cx="2583.7" cy="1201.4" r="4.0" fill="#FFD76A" opacity="0.65"/>
  <circle class="small-star" cx="2554.6" cy="1175.7" r="2.4" fill="#FFFFFF" opacity="0.52"/>
  <circle class="small-star" cx="2791.7" cy="1245.1" r="3.2" fill="#FFD76A" opacity="0.39"/>
  <circle class="small-star" cx="756.5" cy="152.5" r="2.4" fill="#FFD76A" opacity="0.61"/>
  <circle class="small-star" cx="1068.9" cy="1059.4" r="3.2" fill="#FFFFFF" opacity="0.38"/>
  <circle class="small-star" cx="454.0" cy="1647.6" r="2.4" fill="#FFD76A" opacity="0.71"/>
  <circle class="small-star" cx="2777.5" cy="555.7" r="5.0" fill="#FFFFFF" opacity="0.48"/>
  <circle class="small-star" cx="292.5" cy="575.1" r="3.2" fill="#FFFFFF" opacity="0.35"/>
  <circle class="small-star" cx="2575.9" cy="1371.6" r="2.4" fill="#FFD76A" opacity="0.41"/>
  <circle class="small-star" cx="1378.9" cy="823.4" r="5.0" fill="#FFD76A" opacity="0.65"/>
  <g opacity="0.38"><line x1="1037.9" y1="1347.5" x2="1054.4" y2="1347.5" stroke="#FFFFFF" stroke-width="2"/><line x1="1046.2" y1="1339.3" x2="1046.2" y2="1355.8" stroke="#FFFFFF" stroke-width="2"/></g>
  <g opacity="0.31"><line x1="1085.5" y1="1191.9" x2="1111.5" y2="1191.9" stroke="#FFFFFF" stroke-width="2"/><line x1="1098.5" y1="1178.9" x2="1098.5" y2="1204.9" stroke="#FFFFFF" stroke-width="2"/></g>
  <g opacity="0.38"><line x1="2719.3" y1="1147.5" x2="2735.1" y2="1147.5" stroke="#FFFFFF" stroke-width="2"/><line x1="2727.2" y1="1139.6" x2="2727.2" y2="1155.5" stroke="#FFFFFF" stroke-width="2"/></g>
  <g opacity="0.40"><line x1="2429.0" y1="1522.9" x2="2455.4" y2="1522.9" stroke="#FFFFFF" stroke-width="2"/><line x1="2442.2" y1="1509.7" x2="2442.2" y2="1536.1" stroke="#FFFFFF" stroke-width="2"/></g>
  <g opacity="0.26"><line x1="933.4" y1="1267.0" x2="947.9" y2="1267.0" stroke="#FFFFFF" stroke-width="2"/><line x1="940.6" y1="1259.7" x2="940.6" y2="1274.2" stroke="#FFFFFF" stroke-width="2"/></g>
  <g opacity="0.25"><line x1="1365.4" y1="683.3" x2="1389.1" y2="683.3" stroke="#FFFFFF" stroke-width="2"/><line x1="1377.2" y1="671.4" x2="1377.2" y2="695.2" stroke="#FFFFFF" stroke-width="2"/></g>
  <g opacity="0.28"><line x1="1133.6" y1="978.9" x2="1156.0" y2="978.9" stroke="#FFFFFF" stroke-width="2"/><line x1="1144.8" y1="967.7" x2="1144.8" y2="990.1" stroke="#FFFFFF" stroke-width="2"/></g>
  <g opacity="0.21"><line x1="809.5" y1="1043.6" x2="830.5" y2="1043.6" stroke="#FFFFFF" stroke-width="2"/><line x1="820.0" y1="1033.1" x2="820.0" y2="1054.1" stroke="#FFFFFF" stroke-width="2"/></g>
  <g opacity="0.22"><line x1="1700.6" y1="1331.8" x2="1718.9" y2="1331.8" stroke="#FFFFFF" stroke-width="2"/><line x1="1709.7" y1="1322.6" x2="1709.7" y2="1341.0" stroke="#FFFFFF" stroke-width="2"/></g>
  <g opacity="0.25"><line x1="126.7" y1="1618.6" x2="146.2" y2="1618.6" stroke="#FFFFFF" stroke-width="2"/><line x1="136.4" y1="1608.9" x2="136.4" y2="1628.4" stroke="#FFFFFF" stroke-width="2"/></g>
  <g opacity="0.19"><line x1="1902.8" y1="795.8" x2="1917.4" y2="795.8" stroke="#FFFFFF" stroke-width="2"/><line x1="1910.1" y1="788.6" x2="1910.1" y2="803.1" stroke="#FFFFFF" stroke-width="2"/></g>
  <g opacity="0.20"><line x1="2722.9" y1="479.8" x2="2741.3" y2="479.8" stroke="#FFFFFF" stroke-width="2"/><line x1="2732.1" y1="470.6" x2="2732.1" y2="489.1" stroke="#FFFFFF" stroke-width="2"/></g>
  <g opacity="0.18"><line x1="1893.9" y1="1592.1" x2="1910.4" y2="1592.1" stroke="#FFFFFF" stroke-width="2"/><line x1="1902.1" y1="1583.8" x2="1902.1" y2="1600.3" stroke="#FFFFFF" stroke-width="2"/></g>
  <g opacity="0.36"><line x1="2771.7" y1="687.6" x2="2798.7" y2="687.6" stroke="#FFFFFF" stroke-width="2"/><line x1="2785.2" y1="674.1" x2="2785.2" y2="701.1" stroke="#FFFFFF" stroke-width="2"/></g>
  <g opacity="0.27"><line x1="2595.0" y1="1118.3" x2="2622.1" y2="1118.3" stroke="#FFFFFF" stroke-width="2"/><line x1="2608.5" y1="1104.8" x2="2608.5" y2="1131.9" stroke="#FFFFFF" stroke-width="2"/></g>
  <g opacity="0.31"><line x1="2098.4" y1="660.8" x2="2121.0" y2="660.8" stroke="#FFFFFF" stroke-width="2"/><line x1="2109.7" y1="649.6" x2="2109.7" y2="672.1" stroke="#FFFFFF" stroke-width="2"/></g>
  <g opacity="0.28"><line x1="2440.4" y1="517.6" x2="2466.7" y2="517.6" stroke="#FFFFFF" stroke-width="2"/><line x1="2453.6" y1="504.4" x2="2453.6" y2="530.7" stroke="#FFFFFF" stroke-width="2"/></g>
  <g opacity="0.39"><line x1="1736.0" y1="1263.5" x2="1762.2" y2="1263.5" stroke="#FFFFFF" stroke-width="2"/><line x1="1749.1" y1="1250.5" x2="1749.1" y2="1276.6" stroke="#FFFFFF" stroke-width="2"/></g>
  <g opacity="0.24"><line x1="2706.9" y1="1818.4" x2="2731.0" y2="1818.4" stroke="#FFFFFF" stroke-width="2"/><line x1="2719.0" y1="1806.4" x2="2719.0" y2="1830.5" stroke="#FFFFFF" stroke-width="2"/></g>
  <g opacity="0.18"><line x1="483.7" y1="855.4" x2="510.6" y2="855.4" stroke="#FFFFFF" stroke-width="2"/><line x1="497.2" y1="842.0" x2="497.2" y2="868.9" stroke="#FFFFFF" stroke-width="2"/></g>
  <g opacity="0.26"><line x1="2531.2" y1="858.8" x2="2557.5" y2="858.8" stroke="#FFFFFF" stroke-width="2"/><line x1="2544.4" y1="845.6" x2="2544.4" y2="871.9" stroke="#FFFFFF" stroke-width="2"/></g>
  <g opacity="0.26"><line x1="2689.8" y1="1067.2" x2="2704.0" y2="1067.2" stroke="#FFFFFF" stroke-width="2"/><line x1="2696.9" y1="1060.1" x2="2696.9" y2="1074.3" stroke="#FFFFFF" stroke-width="2"/></g>
  <g opacity="0.34"><line x1="858.9" y1="1683.3" x2="874.6" y2="1683.3" stroke="#FFFFFF" stroke-width="2"/><line x1="866.7" y1="1675.4" x2="866.7" y2="1691.2" stroke="#FFFFFF" stroke-width="2"/></g>
  <g opacity="0.41"><line x1="283.3" y1="1640.5" x2="303.1" y2="1640.5" stroke="#FFFFFF" stroke-width="2"/><line x1="293.2" y1="1630.6" x2="293.2" y2="1650.4" stroke="#FFFFFF" stroke-width="2"/></g>
  <g opacity="0.31"><line x1="1786.0" y1="645.4" x2="1812.7" y2="645.4" stroke="#FFFFFF" stroke-width="2"/><line x1="1799.3" y1="632.0" x2="1799.3" y2="658.8" stroke="#FFFFFF" stroke-width="2"/></g>
  <g opacity="0.31"><line x1="2498.6" y1="1433.7" x2="2526.3" y2="1433.7" stroke="#FFFFFF" stroke-width="2"/><line x1="2512.4" y1="1419.8" x2="2512.4" y2="1447.5" stroke="#FFFFFF" stroke-width="2"/></g>
  <g opacity="0.18"><line x1="1323.9" y1="1457.8" x2="1345.0" y2="1457.8" stroke="#FFFFFF" stroke-width="2"/><line x1="1334.5" y1="1447.2" x2="1334.5" y2="1468.4" stroke="#FFFFFF" stroke-width="2"/></g>
  <g opacity="0.26"><line x1="2077.4" y1="740.4" x2="2099.3" y2="740.4" stroke="#FFFFFF" stroke-width="2"/><line x1="2088.3" y1="729.5" x2="2088.3" y2="751.3" stroke="#FFFFFF" stroke-width="2"/></g>
  <g opacity="0.34"><line x1="862.7" y1="575.0" x2="878.4" y2="575.0" stroke="#FFFFFF" stroke-width="2"/><line x1="870.6" y1="567.2" x2="870.6" y2="582.9" stroke="#FFFFFF" stroke-width="2"/></g>
  <g opacity="0.41"><line x1="719.9" y1="472.2" x2="743.1" y2="472.2" stroke="#FFFFFF" stroke-width="2"/><line x1="731.5" y1="460.6" x2="731.5" y2="483.9" stroke="#FFFFFF" stroke-width="2"/></g>
  <g opacity="0.24"><line x1="1557.8" y1="1059.8" x2="1576.6" y2="1059.8" stroke="#FFFFFF" stroke-width="2"/><line x1="1567.2" y1="1050.4" x2="1567.2" y2="1069.2" stroke="#FFFFFF" stroke-width="2"/></g>
  <g opacity="0.23"><line x1="2149.3" y1="805.5" x2="2167.2" y2="805.5" stroke="#FFFFFF" stroke-width="2"/><line x1="2158.3" y1="796.5" x2="2158.3" y2="814.4" stroke="#FFFFFF" stroke-width="2"/></g>
  <g opacity="0.32"><line x1="1257.3" y1="1219.8" x2="1280.0" y2="1219.8" stroke="#FFFFFF" stroke-width="2"/><line x1="1268.7" y1="1208.4" x2="1268.7" y2="1231.1" stroke="#FFFFFF" stroke-width="2"/></g>
  <g opacity="0.28"><line x1="442.1" y1="1012.0" x2="460.0" y2="1012.0" stroke="#FFFFFF" stroke-width="2"/><line x1="451.1" y1="1003.0" x2="451.1" y2="1020.9" stroke="#FFFFFF" stroke-width="2"/></g>
  <g opacity="0.26"><line x1="1591.0" y1="1092.4" x2="1612.3" y2="1092.4" stroke="#FFFFFF" stroke-width="2"/><line x1="1601.7" y1="1081.8" x2="1601.7" y2="1103.1" stroke="#FFFFFF" stroke-width="2"/></g>
  <g opacity="0.22"><line x1="1055.6" y1="492.9" x2="1070.8" y2="492.9" stroke="#FFFFFF" stroke-width="2"/><line x1="1063.2" y1="485.2" x2="1063.2" y2="500.5" stroke="#FFFFFF" stroke-width="2"/></g>
  <polygon class="signature-star" points="213.6,1221.7 222.0,1245.2 246.8,1247.3 227.1,1262.5 232.8,1286.7 212.2,1272.7 190.9,1285.6 198.0,1261.7 179.1,1245.4 204.0,1244.7"/>
  <line class="signature-star-inner" x1="197.7" y1="1260.2" x2="227.6" y2="1260.2"/>
  <polygon class="signature-star" points="234.4,1283.4 242.9,1305.8 266.8,1307.3 248.1,1322.3 254.1,1345.5 234.0,1332.3 213.8,1345.2 220.1,1322.1 201.7,1306.8 225.6,1305.7"/>
  <line class="signature-star-inner" x1="219.8" y1="1320.4" x2="248.5" y2="1320.4"/>
  <polygon class="signature-star" points="254.4,1338.7 264.4,1362.4 290.0,1363.1 270.6,1379.8 277.9,1404.5 255.9,1391.2 234.7,1405.7 240.6,1380.7 220.2,1365.0 245.8,1362.9"/>
  <line class="signature-star-inner" x1="240.0" y1="1378.3" x2="270.9" y2="1378.3"/>
  <polygon class="signature-star" points="267.3,1420.5 276.6,1441.9 300.0,1442.3 282.5,1457.8 289.3,1480.1 269.2,1468.2 250.0,1481.6 255.1,1458.8 236.5,1444.8 259.7,1442.6"/>
  <line class="signature-star-inner" x1="254.6" y1="1456.5" x2="282.7" y2="1456.5"/>
  <polygon class="signature-star" points="292.6,1457.9 302.0,1479.1 325.1,1479.3 307.9,1494.7 314.8,1516.8 294.8,1505.2 275.9,1518.6 280.8,1496.0 262.2,1482.2 285.2,1479.8"/>
  <line class="signature-star-inner" x1="280.2" y1="1493.6" x2="308.1" y2="1493.6"/>
  <polygon class="signature-star" points="307.9,1497.6 319.4,1522.6 346.9,1522.3 326.7,1541.0 335.4,1567.1 311.4,1553.7 289.3,1570.0 294.6,1543.0 272.3,1527.1 299.6,1523.8"/>
  <line class="signature-star-inner" x1="293.8" y1="1540.0" x2="326.8" y2="1540.0"/>
  <polygon class="signature-star" points="316.8,1532.0 328.5,1558.9 357.7,1559.3 335.8,1578.7 344.4,1606.6 319.2,1591.8 295.3,1608.6 301.6,1580.0 278.2,1562.5 307.3,1559.7"/>
  <line class="signature-star-inner" x1="300.9" y1="1577.2" x2="336.0" y2="1577.2"/>
  <polygon class="signature-star" points="348.2,1578.1 357.8,1599.9 381.6,1600.2 363.8,1616.0 370.9,1638.7 350.4,1626.7 331.0,1640.5 336.0,1617.2 316.9,1603.1 340.6,1600.7"/>
  <line class="signature-star-inner" x1="335.4" y1="1614.8" x2="364.0" y2="1614.8"/>
  <polygon class="signature-star" points="358.3,1618.1 370.4,1643.9 398.9,1643.5 378.1,1663.0 387.2,1689.9 362.3,1676.2 339.5,1693.2 344.8,1665.3 321.6,1648.8 349.8,1645.3"/>
  <line class="signature-star-inner" x1="344.0" y1="1662.0" x2="378.2" y2="1662.0"/>
  <polygon class="signature-star" points="389.8,1687.4 397.8,1713.3 424.7,1716.7 402.5,1732.4 407.6,1759.0 385.9,1742.8 362.1,1755.9 370.9,1730.2 351.1,1711.6 378.2,1711.9"/>
  <line class="signature-star-inner" x1="370.8" y1="1729.2" x2="403.4" y2="1729.2"/>
  <polygon class="signature-star" points="428.1,1176.4 438.0,1197.5 461.3,1197.3 444.2,1213.2 451.6,1235.3 431.2,1224.0 412.5,1237.8 417.0,1215.0 398.0,1201.4 421.1,1198.6"/>
  <line class="signature-star-inner" x1="416.3" y1="1212.3" x2="444.3" y2="1212.3"/>
  <polygon class="signature-star" points="461.6,1233.2 473.2,1259.9 502.4,1260.4 480.5,1279.8 489.1,1307.7 463.9,1292.8 440.0,1309.6 446.4,1281.1 423.1,1263.5 452.1,1260.8"/>
  <line class="signature-star-inner" x1="445.7" y1="1278.2" x2="480.8" y2="1278.2"/>
  <polygon class="signature-star" points="467.7,1311.3 478.5,1335.2 504.7,1335.2 485.3,1352.8 493.4,1377.7 470.6,1364.8 449.5,1380.2 454.7,1354.5 433.6,1339.1 459.6,1336.2"/>
  <line class="signature-star-inner" x1="454.0" y1="1351.7" x2="485.5" y2="1351.7"/>
  <polygon class="signature-star" points="504.2,1355.6 513.3,1378.6 538.0,1379.8 519.0,1395.6 525.4,1419.4 504.6,1406.1 483.9,1419.7 490.1,1395.7 470.8,1380.2 495.5,1378.7"/>
  <line class="signature-star-inner" x1="489.6" y1="1393.8" x2="519.3" y2="1393.8"/>
  <polygon class="signature-star" points="514.5,1379.4 525.2,1403.0 551.0,1403.0 531.9,1420.4 539.9,1444.9 517.4,1432.2 496.5,1447.3 501.8,1422.0 480.9,1406.9 506.5,1404.0"/>
  <line class="signature-star-inner" x1="501.0" y1="1419.3" x2="532.1" y2="1419.3"/>
  <polygon class="signature-star" points="510.4,1435.1 520.3,1458.2 545.4,1458.8 526.4,1475.3 533.6,1499.4 512.1,1486.5 491.4,1500.7 497.0,1476.3 477.1,1461.0 502.1,1458.8"/>
  <line class="signature-star-inner" x1="496.5" y1="1473.9" x2="526.7" y2="1473.9"/>
  <polygon class="signature-star" points="538.9,1483.4 546.8,1505.8 570.4,1507.9 551.5,1522.2 556.8,1545.3 537.3,1531.8 517.0,1544.0 523.8,1521.3 506.0,1505.8 529.7,1505.2"/>
  <line class="signature-star-inner" x1="523.6" y1="1520.0" x2="552.0" y2="1520.0"/>
  <polygon class="signature-star" points="553.9,1537.9 564.2,1562.6 590.9,1563.5 570.6,1580.9 578.1,1606.6 555.3,1592.6 533.1,1607.7 539.3,1581.7 518.1,1565.3 544.8,1563.1"/>
  <line class="signature-star-inner" x1="538.8" y1="1579.3" x2="570.9" y2="1579.3"/>
  <polygon class="signature-star" points="578.8,1603.6 587.9,1629.8 615.5,1632.3 593.4,1649.1 599.6,1676.1 576.8,1660.3 553.0,1674.5 561.0,1647.9 540.1,1629.7 567.9,1629.1"/>
  <line class="signature-star-inner" x1="560.7" y1="1646.4" x2="594.1" y2="1646.4"/>
  <polygon class="signature-star" points="612.3,1646.0 622.5,1672.7 651.0,1674.5 628.7,1692.4 635.9,1720.0 612.0,1704.4 587.9,1719.7 595.4,1692.2 573.3,1674.0 601.9,1672.6"/>
  <line class="signature-star-inner" x1="594.9" y1="1690.1" x2="629.2" y2="1690.1"/>
  <polygon class="signature-star" points="669.5,1131.3 679.2,1158.4 708.0,1160.8 685.2,1178.5 691.9,1206.5 668.0,1190.3 643.3,1205.3 651.4,1177.6 629.5,1158.8 658.4,1157.9"/>
  <line class="signature-star-inner" x1="651.1" y1="1175.8" x2="685.8" y2="1175.8"/>
  <polygon class="signature-star" points="664.6,1172.3 673.7,1195.0 698.2,1196.1 679.4,1211.8 686.0,1235.4 665.2,1222.4 644.8,1235.9 650.8,1212.1 631.6,1196.9 656.0,1195.2"/>
  <line class="signature-star-inner" x1="650.3" y1="1210.1" x2="679.7" y2="1210.1"/>
  <polygon class="signature-star" points="696.7,1223.3 705.1,1247.2 730.3,1249.4 710.2,1264.7 715.8,1289.3 695.1,1275.0 673.4,1288.0 680.6,1263.8 661.6,1247.2 686.8,1246.6"/>
  <line class="signature-star-inner" x1="680.4" y1="1262.3" x2="710.7" y2="1262.3"/>
  <polygon class="signature-star" points="716.9,1252.8 727.0,1279.7 755.7,1281.6 733.1,1299.5 740.2,1327.4 716.2,1311.5 691.8,1326.8 699.5,1299.1 677.5,1280.7 706.2,1279.4"/>
  <line class="signature-star-inner" x1="699.1" y1="1297.1" x2="733.7" y2="1297.1"/>
  <polygon class="signature-star" points="707.9,1313.5 717.4,1338.5 744.1,1340.1 723.2,1356.9 729.9,1382.8 707.5,1368.1 684.9,1382.4 692.0,1356.7 671.4,1339.6 698.1,1338.3"/>
  <line class="signature-star-inner" x1="691.6" y1="1354.7" x2="723.7" y2="1354.7"/>
  <polygon class="signature-star" points="746.8,1351.1 756.8,1376.0 783.6,1377.1 763.1,1394.4 770.3,1420.2 747.6,1406.0 725.2,1420.9 731.7,1394.8 710.7,1378.2 737.4,1376.3"/>
  <line class="signature-star-inner" x1="731.2" y1="1392.6" x2="763.4" y2="1392.6"/>
  <polygon class="signature-star" points="752.7,1416.7 761.8,1439.3 786.0,1440.4 767.4,1455.9 773.8,1479.4 753.3,1466.4 733.0,1479.8 739.0,1456.2 720.0,1441.1 744.2,1439.5"/>
  <line class="signature-star-inner" x1="738.5" y1="1454.3" x2="767.7" y2="1454.3"/>
  <polygon class="signature-star" points="778.6,1482.0 787.5,1506.4 813.3,1508.3 792.9,1524.3 799.0,1549.5 777.5,1535.0 755.4,1548.6 762.5,1523.7 742.8,1506.9 768.7,1506.0"/>
  <line class="signature-star-inner" x1="762.2" y1="1522.0" x2="793.4" y2="1522.0"/>
  <polygon class="signature-star" points="809.0,1540.5 818.6,1563.1 843.2,1563.7 824.7,1579.8 831.8,1603.4 810.7,1590.8 790.4,1604.8 795.9,1580.8 776.4,1565.9 800.9,1563.7"/>
  <line class="signature-star-inner" x1="795.4" y1="1578.4" x2="824.9" y2="1578.4"/>
  <polygon class="signature-star" points="828.5,1610.8 839.9,1634.8 866.4,1634.2 847.2,1652.5 855.9,1677.6 832.6,1664.9 811.4,1680.9 816.2,1654.8 794.5,1639.7 820.8,1636.2"/>
  <line class="signature-star-inner" x1="815.4" y1="1651.7" x2="847.3" y2="1651.7"/>
  <polygon class="signature-star" points="857.2,1037.8 866.2,1065.0 894.6,1068.0 871.6,1085.0 877.6,1113.0 854.3,1096.3 829.5,1110.6 838.2,1083.3 816.9,1064.2 845.5,1064.0"/>
  <line class="signature-star-inner" x1="838.0" y1="1082.0" x2="872.3" y2="1082.0"/>
  <polygon class="signature-star" points="899.8,1072.3 909.7,1100.6 939.6,1103.2 915.8,1121.4 922.5,1150.7 897.8,1133.6 872.1,1149.1 880.7,1120.3 858.1,1100.7 888.1,1099.9"/>
  <line class="signature-star-inner" x1="880.4" y1="1118.6" x2="916.4" y2="1118.6"/>
  <polygon class="signature-star" points="895.9,1113.4 908.0,1139.8 937.0,1139.6 915.7,1159.3 924.8,1186.9 899.5,1172.7 876.1,1189.9 881.8,1161.4 858.2,1144.5 887.0,1141.1"/>
  <line class="signature-star-inner" x1="881.0" y1="1158.2" x2="915.8" y2="1158.2"/>
  <polygon class="signature-star" points="916.5,1173.0 926.9,1200.0 955.8,1201.7 933.3,1219.9 940.7,1247.9 916.4,1232.2 892.1,1247.9 899.5,1219.9 877.1,1201.6 906.0,1200.0"/>
  <line class="signature-star-inner" x1="899.0" y1="1217.7" x2="933.8" y2="1217.7"/>
  <polygon class="signature-star" points="921.1,1223.4 931.1,1248.8 958.3,1250.3 937.2,1267.6 944.3,1293.9 921.3,1279.2 898.4,1294.0 905.3,1267.7 884.1,1250.5 911.3,1248.9"/>
  <line class="signature-star-inner" x1="904.9" y1="1265.5" x2="937.6" y2="1265.5"/>
  <polygon class="signature-star" points="953.4,1280.6 962.4,1305.0 988.3,1306.9 967.9,1323.0 974.1,1348.3 952.5,1333.8 930.3,1347.5 937.4,1322.5 917.6,1305.7 943.6,1304.7"/>
  <line class="signature-star-inner" x1="937.1" y1="1320.8" x2="968.4" y2="1320.8"/>
  <polygon class="signature-star" points="982.0,1341.1 991.8,1364.8 1017.4,1365.6 997.9,1382.3 1005.0,1406.9 983.2,1393.5 962.0,1407.9 967.9,1383.0 947.7,1367.2 973.3,1365.2"/>
  <line class="signature-star-inner" x1="967.4" y1="1380.7" x2="998.2" y2="1380.7"/>
  <polygon class="signature-star" points="993.0,1419.5 1003.8,1445.6 1032.1,1446.4 1010.6,1464.8 1018.6,1492.0 994.4,1477.3 971.1,1493.2 977.6,1465.7 955.3,1448.4 983.4,1446.1"/>
  <line class="signature-star-inner" x1="977.0" y1="1463.1" x2="1011.0" y2="1463.1"/>
  <polygon class="signature-star" points="1028.6,1477.0 1040.3,1501.4 1067.3,1500.8 1047.7,1519.4 1056.6,1545.0 1032.8,1532.1 1011.3,1548.5 1016.2,1521.9 994.0,1506.4 1020.8,1502.9"/>
  <line class="signature-star-inner" x1="1015.3" y1="1518.6" x2="1047.8" y2="1518.6"/>
  <polygon class="signature-star" points="1064.7,1568.1 1071.9,1592.1 1096.7,1595.5 1076.1,1609.8 1080.6,1634.4 1060.7,1619.2 1038.6,1631.1 1046.9,1607.5 1028.8,1590.2 1053.8,1590.7"/>
  <line class="signature-star-inner" x1="1046.8" y1="1606.7" x2="1076.9" y2="1606.7"/>
  <polygon class="signature-star" points="1071.1,921.7 1079.8,947.3 1106.7,949.9 1085.0,966.1 1090.8,992.5 1068.7,976.9 1045.4,990.6 1053.4,964.7 1033.2,946.8 1060.2,946.4"/>
  <line class="signature-star-inner" x1="1053.2" y1="963.4" x2="1085.7" y2="963.4"/>
  <polygon class="signature-star" points="1085.7,961.3 1096.0,984.0 1120.9,984.0 1102.6,1000.8 1110.3,1024.4 1088.6,1012.1 1068.5,1026.8 1073.5,1002.4 1053.3,987.8 1078.1,985.0"/>
  <line class="signature-star-inner" x1="1072.8" y1="999.7" x2="1102.7" y2="999.7"/>
  <polygon class="signature-star" points="1105.7,1005.8 1114.1,1033.7 1143.0,1037.5 1119.1,1054.2 1124.4,1082.8 1101.2,1065.2 1075.5,1079.1 1085.1,1051.6 1064.0,1031.5 1093.1,1032.1"/>
  <line class="signature-star-inner" x1="1085.0" y1="1050.7" x2="1120.0" y2="1050.7"/>
  <polygon class="signature-star" points="1137.3,1085.4 1147.7,1108.8 1173.4,1109.0 1154.3,1126.2 1162.1,1150.6 1139.9,1137.8 1119.0,1152.7 1124.4,1127.6 1103.7,1112.4 1129.2,1109.8"/>
  <line class="signature-star-inner" x1="1123.7" y1="1125.0" x2="1154.5" y2="1125.0"/>
  <polygon class="signature-star" points="1164.7,1118.0 1175.1,1144.0 1203.0,1145.3 1181.5,1163.2 1188.8,1190.2 1165.2,1175.2 1141.8,1190.6 1148.7,1163.5 1126.9,1145.9 1154.8,1144.2"/>
  <line class="signature-star-inner" x1="1148.2" y1="1161.2" x2="1181.9" y2="1161.2"/>
  <polygon class="signature-star" points="1187.7,1185.2 1199.0,1210.8 1227.0,1211.1 1206.1,1229.8 1214.4,1256.5 1190.2,1242.3 1167.4,1258.5 1173.4,1231.2 1150.9,1214.4 1178.8,1211.7"/>
  <line class="signature-star-inner" x1="1172.7" y1="1228.3" x2="1206.3" y2="1228.3"/>
  <polygon class="signature-star" points="1207.7,1260.2 1216.6,1285.3 1243.1,1287.5 1222.0,1303.7 1228.1,1329.6 1206.2,1314.6 1183.4,1328.4 1190.9,1302.9 1170.8,1285.5 1197.4,1284.7"/>
  <line class="signature-star-inner" x1="1190.6" y1="1301.3" x2="1222.6" y2="1301.3"/>
  <polygon class="signature-star" points="1217.5,1328.5 1227.9,1351.3 1253.0,1351.3 1234.4,1368.2 1242.1,1392.1 1220.4,1379.7 1200.1,1394.4 1205.1,1369.8 1184.8,1355.1 1209.8,1352.3"/>
  <line class="signature-star-inner" x1="1204.4" y1="1367.1" x2="1234.6" y2="1367.1"/>
  <polygon class="signature-star" points="1269.2,1405.7 1277.7,1431.7 1304.9,1434.7 1282.8,1450.8 1288.4,1477.5 1266.3,1461.5 1242.5,1475.1 1250.9,1449.1 1230.7,1430.7 1258.0,1430.7"/>
  <line class="signature-star-inner" x1="1250.7" y1="1447.9" x2="1283.6" y2="1447.9"/>
  <polygon class="signature-star" points="1267.1,1456.3 1277.8,1481.6 1305.2,1482.3 1284.5,1500.2 1292.2,1526.6 1268.7,1512.4 1246.1,1527.9 1252.4,1501.2 1230.6,1484.5 1257.9,1482.1"/>
  <line class="signature-star-inner" x1="1251.8" y1="1498.6" x2="1284.7" y2="1498.6"/>
  <polygon class="signature-star" points="1295.0,802.5 1303.2,825.1 1327.1,827.0 1308.1,841.8 1313.7,865.2 1293.8,851.7 1273.3,864.2 1280.0,841.1 1261.7,825.5 1285.8,824.7"/>
  <line class="signature-star-inner" x1="1279.7" y1="839.6" x2="1308.6" y2="839.6"/>
  <polygon class="signature-star" points="1320.0,847.5 1330.4,875.3 1359.9,877.3 1336.7,895.7 1343.9,924.5 1319.2,908.1 1294.1,923.8 1302.0,895.3 1279.3,876.2 1308.9,875.0"/>
  <line class="signature-star-inner" x1="1301.6" y1="893.3" x2="1337.2" y2="893.3"/>
  <polygon class="signature-star" points="1322.9,916.3 1332.1,941.9 1359.2,944.1 1337.6,960.7 1343.9,987.2 1321.5,971.8 1298.2,985.9 1305.9,959.9 1285.3,942.1 1312.4,941.3"/>
  <line class="signature-star-inner" x1="1305.6" y1="958.2" x2="1338.2" y2="958.2"/>
  <polygon class="signature-star" points="1348.6,959.2 1358.9,986.1 1387.6,987.9 1365.2,1005.9 1372.3,1033.7 1348.3,1018.0 1324.0,1033.4 1331.5,1005.7 1309.3,987.3 1338.1,985.9"/>
  <line class="signature-star-inner" x1="1331.1" y1="1003.6" x2="1365.7" y2="1003.6"/>
  <polygon class="signature-star" points="1385.1,1035.7 1393.1,1060.3 1418.8,1063.2 1397.8,1078.4 1403.0,1103.7 1382.1,1088.5 1359.7,1101.2 1367.7,1076.6 1348.6,1059.2 1374.5,1059.3"/>
  <line class="signature-star-inner" x1="1367.5" y1="1075.6" x2="1398.5" y2="1075.6"/>
  <polygon class="signature-star" points="1397.0,1095.6 1407.5,1121.0 1434.9,1122.0 1414.0,1139.7 1421.5,1166.1 1398.2,1151.7 1375.4,1167.0 1381.9,1140.4 1360.3,1123.4 1387.6,1121.4"/>
  <line class="signature-star-inner" x1="1381.4" y1="1138.0" x2="1414.3" y2="1138.0"/>
  <polygon class="signature-star" points="1420.7,1186.8 1430.2,1214.9 1459.7,1217.8 1435.9,1235.5 1442.2,1264.5 1418.1,1247.3 1392.5,1262.3 1401.3,1234.0 1379.2,1214.3 1408.8,1214.0"/>
  <line class="signature-star-inner" x1="1401.1" y1="1232.5" x2="1436.6" y2="1232.5"/>
  <polygon class="signature-star" points="1449.3,1231.2 1458.9,1258.4 1487.7,1260.9 1464.8,1278.4 1471.3,1306.5 1447.5,1290.2 1422.8,1305.1 1431.0,1277.4 1409.2,1258.5 1438.1,1257.8"/>
  <line class="signature-star-inner" x1="1430.7" y1="1275.7" x2="1465.4" y2="1275.7"/>
  <polygon class="signature-star" points="1479.5,1276.3 1489.3,1303.9 1518.5,1306.4 1495.3,1324.2 1501.9,1352.8 1477.7,1336.2 1452.6,1351.4 1461.0,1323.2 1438.8,1304.0 1468.1,1303.3"/>
  <line class="signature-star-inner" x1="1460.7" y1="1321.5" x2="1495.9" y2="1321.5"/>
  <polygon class="signature-star" points="1503.0,1349.7 1510.5,1374.7 1536.4,1378.1 1514.9,1393.0 1519.6,1418.6 1498.9,1402.8 1475.9,1415.2 1484.5,1390.6 1465.7,1372.6 1491.7,1373.2"/>
  <line class="signature-star-inner" x1="1484.5" y1="1389.8" x2="1515.8" y2="1389.8"/>
  <polygon class="signature-star" points="1507.5,669.3 1518.8,693.4 1545.4,693.0 1526.0,711.2 1534.6,736.4 1511.3,723.6 1490.0,739.5 1495.0,713.4 1473.2,698.0 1499.6,694.7"/>
  <line class="signature-star-inner" x1="1494.2" y1="710.3" x2="1526.2" y2="710.3"/>
  <polygon class="signature-star" points="1520.3,748.1 1532.3,774.8 1561.7,774.9 1539.9,794.6 1548.9,822.5 1523.5,807.9 1499.7,825.1 1505.7,796.4 1482.0,779.1 1511.2,775.9"/>
  <line class="signature-star-inner" x1="1504.9" y1="793.3" x2="1540.1" y2="793.3"/>
  <polygon class="signature-star" points="1552.1,819.1 1563.4,843.2 1589.9,842.8 1570.5,861.0 1579.1,886.1 1555.8,873.3 1534.5,889.2 1539.6,863.1 1517.9,847.8 1544.2,844.5"/>
  <line class="signature-star-inner" x1="1538.7" y1="860.0" x2="1570.6" y2="860.0"/>
  <polygon class="signature-star" points="1570.7,887.8 1578.4,913.1 1604.6,916.5 1583.0,931.7 1587.9,957.6 1566.8,941.7 1543.6,954.4 1552.2,929.4 1532.9,911.3 1559.4,911.7"/>
  <line class="signature-star-inner" x1="1552.1" y1="928.6" x2="1583.8" y2="928.6"/>
  <polygon class="signature-star" points="1596.3,949.0 1603.9,973.1 1628.9,976.1 1608.4,990.8 1613.2,1015.5 1593.0,1000.5 1570.9,1012.8 1579.0,988.8 1560.5,971.7 1585.7,971.9"/>
  <line class="signature-star-inner" x1="1578.8" y1="987.9" x2="1609.1" y2="987.9"/>
  <polygon class="signature-star" points="1638.9,997.3 1648.4,1024.8 1677.4,1027.5 1654.2,1045.0 1660.6,1073.4 1636.7,1056.7 1611.7,1071.6 1620.2,1043.8 1598.3,1024.6 1627.4,1024.0"/>
  <line class="signature-star-inner" x1="1619.9" y1="1042.2" x2="1654.8" y2="1042.2"/>
  <polygon class="signature-star" points="1650.1,1059.2 1658.3,1083.3 1683.7,1085.8 1663.2,1101.1 1668.7,1126.0 1647.9,1111.3 1625.9,1124.2 1633.4,1099.9 1614.3,1082.9 1639.9,1082.6"/>
  <line class="signature-star-inner" x1="1633.2" y1="1098.6" x2="1663.9" y2="1098.6"/>
  <polygon class="signature-star" points="1672.7,1113.6 1681.5,1135.2 1704.7,1136.0 1687.0,1151.1 1693.3,1173.5 1673.6,1161.2 1654.2,1174.2 1659.8,1151.6 1641.5,1137.2 1664.7,1135.5"/>
  <line class="signature-star-inner" x1="1659.3" y1="1149.6" x2="1687.3" y2="1149.6"/>
  <polygon class="signature-star" points="1673.3,1166.4 1681.8,1187.9 1704.9,1189.1 1687.1,1203.8 1693.2,1226.1 1673.7,1213.7 1654.3,1226.4 1660.1,1204.0 1642.0,1189.5 1665.1,1188.1"/>
  <line class="signature-star-inner" x1="1659.7" y1="1202.2" x2="1687.5" y2="1202.2"/>
  <polygon class="signature-star" points="1714.2,1196.5 1722.6,1223.8 1751.0,1227.5 1727.5,1243.9 1732.9,1272.0 1710.0,1254.8 1684.9,1268.6 1694.2,1241.5 1673.4,1221.9 1702.0,1222.4"/>
  <line class="signature-star-inner" x1="1694.1" y1="1240.6" x2="1728.4" y2="1240.6"/>
  <polygon class="signature-star" points="1737.8,608.1 1745.3,630.7 1769.0,633.2 1749.8,647.4 1754.7,670.6 1735.4,656.8 1714.7,668.6 1722.0,646.0 1704.3,630.0 1728.1,629.9"/>
  <line class="signature-star-inner" x1="1721.8" y1="644.9" x2="1750.4" y2="644.9"/>
  <polygon class="signature-star" points="1756.5,656.1 1765.2,682.7 1793.1,685.7 1770.5,702.3 1776.3,729.7 1753.5,713.3 1729.3,727.3 1737.8,700.6 1717.0,681.8 1745.0,681.7"/>
  <line class="signature-star-inner" x1="1737.6" y1="699.3" x2="1771.2" y2="699.3"/>
  <polygon class="signature-star" points="1787.0,747.0 1797.2,770.6 1822.8,771.0 1803.6,787.9 1811.1,812.5 1789.1,799.4 1768.1,814.1 1773.6,789.1 1753.1,773.7 1778.7,771.3"/>
  <line class="signature-star-inner" x1="1773.0" y1="786.6" x2="1803.8" y2="786.6"/>
  <polygon class="signature-star" points="1815.5,798.0 1825.9,822.3 1852.3,822.9 1832.4,840.3 1840.0,865.5 1817.4,852.0 1795.7,867.0 1801.5,841.3 1780.5,825.3 1806.8,823.0"/>
  <line class="signature-star-inner" x1="1800.9" y1="838.8" x2="1832.7" y2="838.8"/>
  <polygon class="signature-star" points="1818.2,867.4 1829.9,894.8 1859.8,895.5 1837.3,915.1 1845.8,943.7 1820.2,928.4 1795.7,945.4 1802.4,916.3 1778.6,898.2 1808.4,895.5"/>
  <line class="signature-star-inner" x1="1801.7" y1="913.4" x2="1837.6" y2="913.4"/>
  <polygon class="signature-star" points="1841.4,916.2 1852.6,940.6 1879.5,940.4 1859.7,958.6 1868.2,984.1 1844.8,971.0 1823.2,986.9 1828.4,960.6 1806.6,944.9 1833.3,941.8"/>
  <line class="signature-star-inner" x1="1827.7" y1="957.6" x2="1859.9" y2="957.6"/>
  <polygon class="signature-star" points="1861.0,946.8 1872.7,973.3 1901.7,973.6 1880.1,992.9 1888.8,1020.6 1863.7,1006.0 1840.2,1022.8 1846.2,994.5 1822.9,977.3 1851.8,974.3"/>
  <line class="signature-star-inner" x1="1845.5" y1="991.5" x2="1880.3" y2="991.5"/>
  <polygon class="signature-star" points="1882.7,991.7 1891.0,1016.8 1917.3,1019.5 1896.0,1035.2 1901.5,1061.1 1880.0,1045.6 1857.1,1058.8 1865.1,1033.7 1845.5,1016.0 1871.9,1015.8"/>
  <line class="signature-star-inner" x1="1864.9" y1="1032.4" x2="1896.7" y2="1032.4"/>
  <polygon class="signature-star" points="1902.0,1052.7 1914.4,1079.4 1943.8,1079.1 1922.2,1099.1 1931.5,1127.0 1905.9,1112.7 1882.2,1130.2 1887.9,1101.3 1864.0,1084.3 1893.2,1080.8"/>
  <line class="signature-star-inner" x1="1887.0" y1="1098.0" x2="1922.4" y2="1098.0"/>
  <polygon class="signature-star" points="1924.3,1089.6 1932.7,1112.7 1957.1,1114.6 1937.8,1129.7 1943.5,1153.6 1923.2,1139.8 1902.2,1152.6 1909.0,1129.0 1890.4,1113.1 1914.9,1112.3"/>
  <line class="signature-star-inner" x1="1908.8" y1="1127.5" x2="1938.3" y2="1127.5"/>
  <polygon class="signature-star" points="1945.1,532.2 1957.1,558.2 1985.8,558.0 1964.7,577.5 1973.8,604.7 1948.7,590.7 1925.7,607.7 1931.2,579.6 1907.9,562.9 1936.4,559.5"/>
  <line class="signature-star-inner" x1="1930.4" y1="576.4" x2="1964.9" y2="576.4"/>
  <polygon class="signature-star" points="1977.4,603.1 1986.4,628.9 2013.5,631.4 1991.8,647.8 1997.8,674.4 1975.4,658.8 1952.0,672.8 1959.9,646.7 1939.4,628.7 1966.7,628.2"/>
  <line class="signature-star-inner" x1="1959.6" y1="645.2" x2="1992.4" y2="645.2"/>
  <polygon class="signature-star" points="2016.3,678.5 2023.9,702.4 2048.8,705.4 2028.4,720.0 2033.2,744.5 2013.1,729.6 1991.2,741.9 1999.1,718.1 1980.7,701.0 2005.8,701.3"/>
  <line class="signature-star-inner" x1="1999.0" y1="717.1" x2="2029.1" y2="717.1"/>
  <polygon class="signature-star" points="2029.3,714.8 2040.4,738.0 2066.1,737.5 2047.4,755.2 2055.9,779.5 2033.3,767.2 2012.8,782.8 2017.4,757.5 1996.3,742.8 2021.8,739.4"/>
  <line class="signature-star-inner" x1="2016.6" y1="754.4" x2="2047.5" y2="754.4"/>
  <polygon class="signature-star" points="2036.9,774.8 2048.9,801.0 2077.8,800.9 2056.6,820.4 2065.6,847.8 2040.5,833.7 2017.2,850.7 2022.9,822.5 1999.5,805.6 2028.1,802.3"/>
  <line class="signature-star-inner" x1="2022.1" y1="819.3" x2="2056.7" y2="819.3"/>
  <polygon class="signature-star" points="2051.2,825.0 2059.1,847.5 2082.8,849.6 2063.8,864.0 2069.1,887.2 2049.6,873.6 2029.2,885.8 2036.0,863.0 2018.1,847.4 2041.9,846.9"/>
  <line class="signature-star-inner" x1="2035.8" y1="861.7" x2="2064.4" y2="861.7"/>
  <polygon class="signature-star" points="2080.5,877.6 2090.5,899.8 2114.8,899.9 2096.8,916.2 2104.2,939.4 2083.1,927.3 2063.4,941.5 2068.4,917.7 2048.7,903.4 2072.9,900.7"/>
  <line class="signature-star-inner" x1="2067.7" y1="915.1" x2="2096.9" y2="915.1"/>
  <polygon class="signature-star" points="2091.4,892.3 2100.6,918.1 2127.8,920.3 2106.2,937.0 2112.5,963.6 2089.9,948.2 2066.6,962.4 2074.2,936.2 2053.5,918.3 2080.8,917.5"/>
  <line class="signature-star-inner" x1="2073.9" y1="934.5" x2="2106.8" y2="934.5"/>
  <polygon class="signature-star" points="2098.9,967.3 2111.0,993.1 2139.5,992.7 2118.7,1012.2 2127.8,1039.2 2102.9,1025.4 2080.1,1042.4 2085.5,1014.5 2062.2,998.0 2090.5,994.5"/>
  <line class="signature-star-inner" x1="2084.6" y1="1011.2" x2="2118.8" y2="1011.2"/>
  <polygon class="signature-star" points="2120.7,1015.7 2130.7,1039.0 2156.1,1039.5 2137.0,1056.3 2144.5,1080.5 2122.6,1067.6 2101.8,1082.2 2107.4,1057.4 2087.1,1042.1 2112.4,1039.7"/>
  <line class="signature-star-inner" x1="2106.8" y1="1054.9" x2="2137.3" y2="1054.9"/>
  <polygon class="signature-star" points="2194.8,486.5 2204.5,514.8 2234.3,517.6 2210.4,535.6 2217.0,564.8 2192.4,547.7 2166.7,563.0 2175.4,534.3 2152.9,514.5 2182.9,514.0"/>
  <line class="signature-star-inner" x1="2175.2" y1="532.7" x2="2211.1" y2="532.7"/>
  <polygon class="signature-star" points="2206.0,560.9 2215.9,588.6 2245.3,591.1 2221.9,609.1 2228.6,637.8 2204.3,621.1 2179.1,636.4 2187.4,608.1 2165.1,588.8 2194.6,588.0"/>
  <line class="signature-star-inner" x1="2187.1" y1="606.4" x2="2222.5" y2="606.4"/>
  <polygon class="signature-star" points="2232.9,605.2 2243.1,632.5 2272.2,634.5 2249.4,652.6 2256.5,680.9 2232.2,664.8 2207.5,680.3 2215.3,652.2 2192.9,633.6 2222.0,632.3"/>
  <line class="signature-star-inner" x1="2214.9" y1="650.2" x2="2249.9" y2="650.2"/>
  <polygon class="signature-star" points="2237.7,648.8 2246.0,673.4 2271.8,675.9 2251.0,691.4 2256.5,716.7 2235.4,701.7 2213.0,714.8 2220.7,690.1 2201.4,672.8 2227.3,672.5"/>
  <line class="signature-star-inner" x1="2220.5" y1="688.8" x2="2251.6" y2="688.8"/>
  <polygon class="signature-star" points="2258.4,713.0 2267.7,737.6 2294.0,739.3 2273.4,755.8 2279.9,781.3 2258.0,766.8 2235.7,780.9 2242.7,755.5 2222.4,738.7 2248.7,737.5"/>
  <line class="signature-star-inner" x1="2242.3" y1="753.7" x2="2273.9" y2="753.7"/>
  <polygon class="signature-star" points="2284.3,752.4 2292.3,777.3 2318.3,780.3 2297.1,795.6 2302.4,821.3 2281.2,805.8 2258.4,818.7 2266.6,793.8 2247.3,776.2 2273.5,776.2"/>
  <line class="signature-star-inner" x1="2266.4" y1="792.8" x2="2297.9" y2="792.8"/>
  <polygon class="signature-star" points="2286.4,804.3 2295.1,826.6 2319.0,827.8 2300.5,843.0 2306.7,866.0 2286.6,853.2 2266.5,866.2 2272.6,843.1 2254.0,828.0 2277.8,826.6"/>
  <line class="signature-star-inner" x1="2272.2" y1="841.2" x2="2300.9" y2="841.2"/>
  <polygon class="signature-star" points="2309.7,824.5 2318.7,852.3 2347.6,855.6 2324.0,872.7 2329.8,901.2 2306.2,884.0 2280.8,898.4 2289.9,870.7 2268.4,850.9 2297.6,851.0"/>
  <line class="signature-star-inner" x1="2289.8" y1="869.5" x2="2324.8" y2="869.5"/>
  <polygon class="signature-star" points="2317.0,910.1 2328.8,935.8 2357.0,935.8 2336.2,954.9 2345.0,981.7 2320.4,967.8 2297.6,984.5 2303.2,956.8 2280.3,940.2 2308.4,937.0"/>
  <line class="signature-star-inner" x1="2302.4" y1="953.7" x2="2336.4" y2="953.7"/>
  <polygon class="signature-star" points="2359.8,959.2 2370.2,985.6 2398.5,987.0 2376.7,1005.1 2384.1,1032.5 2360.1,1017.2 2336.4,1032.8 2343.5,1005.3 2321.3,987.5 2349.7,985.7"/>
  <line class="signature-star-inner" x1="2343.0" y1="1003.0" x2="2377.1" y2="1003.0"/>
  <polygon class="signature-star" points="2404.9,448.2 2412.7,473.1 2438.6,476.3 2417.3,491.4 2422.3,517.0 2401.4,501.5 2378.6,514.1 2386.9,489.4 2367.8,471.6 2393.9,471.9"/>
  <line class="signature-star-inner" x1="2386.8" y1="488.4" x2="2418.1" y2="488.4"/>
  <polygon class="signature-star" points="2402.7,501.7 2413.4,525.4 2439.4,525.4 2420.2,543.0 2428.2,567.7 2405.6,554.8 2384.6,570.1 2389.8,544.6 2368.7,529.3 2394.6,526.5"/>
  <line class="signature-star-inner" x1="2389.1" y1="541.8" x2="2420.4" y2="541.8"/>
  <polygon class="signature-star" points="2424.2,543.1 2435.2,568.4 2462.9,568.8 2442.2,587.1 2450.4,613.5 2426.5,599.5 2404.0,615.5 2409.9,588.5 2387.8,572.0 2415.3,569.3"/>
  <line class="signature-star-inner" x1="2409.2" y1="585.7" x2="2442.4" y2="585.7"/>
  <polygon class="signature-star" points="2451.9,600.9 2462.6,623.1 2487.2,622.5 2469.4,639.5 2477.5,662.7 2455.9,651.0 2436.3,665.9 2440.7,641.7 2420.5,627.7 2444.9,624.4"/>
  <line class="signature-star-inner" x1="2439.9" y1="638.8" x2="2469.4" y2="638.8"/>
  <polygon class="signature-star" points="2470.9,635.4 2478.2,658.3 2502.1,661.0 2482.6,675.1 2487.4,698.6 2468.0,684.5 2447.1,696.3 2454.6,673.5 2436.9,657.2 2460.9,657.3"/>
  <line class="signature-star-inner" x1="2454.4" y1="672.5" x2="2483.3" y2="672.5"/>
  <polygon class="signature-star" points="2481.6,690.6 2492.7,716.9 2521.3,717.8 2499.6,736.4 2507.7,763.9 2483.2,749.0 2459.6,765.2 2466.2,737.3 2443.5,719.9 2472.0,717.5"/>
  <line class="signature-star-inner" x1="2465.6" y1="734.7" x2="2499.9" y2="734.7"/>
  <polygon class="signature-star" points="2511.9,735.8 2519.9,761.5 2546.5,764.8 2524.6,780.3 2529.6,806.7 2508.1,790.6 2484.6,803.5 2493.3,778.1 2473.7,759.7 2500.5,760.1"/>
  <line class="signature-star-inner" x1="2493.2" y1="777.2" x2="2525.4" y2="777.2"/>
  <polygon class="signature-star" points="2519.8,807.1 2527.6,829.3 2551.0,831.4 2532.3,845.6 2537.5,868.5 2518.2,855.1 2498.0,867.2 2504.8,844.7 2487.1,829.2 2510.6,828.7"/>
  <line class="signature-star-inner" x1="2504.6" y1="843.3" x2="2532.8" y2="843.3"/>
  <polygon class="signature-star" points="2540.5,863.2 2550.2,889.9 2578.6,892.0 2556.2,909.5 2562.9,937.1 2539.3,921.3 2515.2,936.2 2523.0,908.9 2501.3,890.5 2529.7,889.5"/>
  <line class="signature-star-inner" x1="2522.6" y1="907.0" x2="2556.7" y2="907.0"/>
  <polygon class="signature-star" points="2581.3,947.2 2589.7,969.5 2613.5,971.1 2594.9,986.0 2600.7,1009.1 2580.8,996.0 2560.6,1008.7 2567.0,985.7 2548.6,970.4 2572.5,969.3"/>
  <line class="signature-star-inner" x1="2566.6" y1="984.0" x2="2595.3" y2="984.0"/>
  <polygon class="signature-star" points="2611.9,393.7 2621.3,419.2 2648.4,421.1 2627.1,437.9 2633.7,464.2 2611.1,449.2 2588.1,463.6 2595.4,437.4 2574.6,420.0 2601.7,418.9"/>
  <line class="signature-star-inner" x1="2595.0" y1="435.6" x2="2627.6" y2="435.6"/>
  <polygon class="signature-star" points="2642.3,454.9 2649.7,476.9 2672.9,479.2 2654.2,493.1 2659.2,515.9 2640.2,502.4 2620.1,514.2 2627.0,492.0 2609.7,476.5 2632.9,476.2"/>
  <line class="signature-star-inner" x1="2626.9" y1="490.8" x2="2654.8" y2="490.8"/>
  <polygon class="signature-star" points="2639.4,471.9 2647.3,497.3 2673.7,500.6 2652.0,515.9 2657.0,542.0 2635.7,526.2 2612.4,539.0 2621.0,513.8 2601.5,495.7 2628.1,496.0"/>
  <line class="signature-star-inner" x1="2620.8" y1="512.9" x2="2652.8" y2="512.9"/>
  <polygon class="signature-star" points="2650.3,519.8 2659.6,544.4 2685.8,546.0 2665.4,562.4 2672.0,587.8 2650.0,573.5 2627.9,587.6 2634.7,562.3 2614.5,545.6 2640.7,544.3"/>
  <line class="signature-star-inner" x1="2634.3" y1="560.4" x2="2665.8" y2="560.4"/>
  <polygon class="signature-star" points="2672.4,573.2 2680.6,597.3 2705.9,599.7 2685.6,614.9 2691.1,639.7 2670.3,625.1 2648.5,638.0 2656.0,613.7 2637.0,596.9 2662.3,596.5"/>
  <line class="signature-star-inner" x1="2655.7" y1="612.4" x2="2686.2" y2="612.4"/>
  <polygon class="signature-star" points="2715.4,623.1 2726.0,649.8 2754.6,651.2 2732.6,669.5 2740.1,697.1 2715.9,681.8 2691.9,697.5 2699.0,669.7 2676.7,651.8 2705.3,650.0"/>
  <line class="signature-star-inner" x1="2698.5" y1="667.4" x2="2733.0" y2="667.4"/>
  <polygon class="signature-star" points="2718.6,724.4 2726.2,746.3 2749.2,748.4 2730.8,762.3 2735.8,784.8 2716.9,771.6 2697.1,783.4 2703.8,761.3 2686.4,746.1 2709.5,745.6"/>
  <line class="signature-star-inner" x1="2703.6" y1="760.1" x2="2731.3" y2="760.1"/>
  <polygon class="signature-star" points="2759.8,778.2 2770.7,802.4 2797.2,802.5 2777.5,820.3 2785.7,845.5 2762.7,832.4 2741.2,847.9 2746.6,822.0 2725.2,806.3 2751.5,803.4"/>
  <line class="signature-star-inner" x1="2745.9" y1="819.1" x2="2777.7" y2="819.1"/>
  <polygon class="signature-star" points="2766.2,852.2 2776.8,877.1 2803.8,877.7 2783.5,895.4 2791.3,921.3 2768.1,907.4 2745.9,922.9 2751.9,896.5 2730.4,880.2 2757.3,877.7"/>
  <line class="signature-star-inner" x1="2751.3" y1="893.9" x2="2783.8" y2="893.9"/>
  <polygon class="signature-star" points="2794.2,902.2 2806.1,928.5 2835.1,928.5 2813.7,948.0 2822.6,975.6 2797.5,961.3 2774.1,978.3 2779.9,949.9 2756.5,932.9 2785.2,929.7"/>
  <line class="signature-star-inner" x1="2779.1" y1="946.8" x2="2813.9" y2="946.8"/>

  <text x="1508" y="238" text-anchor="middle" class="title" font-size="190" fill="#000814" opacity="0.34">向九年级出发</text>
  <text x="1500" y="230" text-anchor="middle" class="title" font-size="190" fill="#FFFFFF">向九年级出发</text>
  <text x="1500" y="338" text-anchor="middle" class="subtitle" font-size="52" fill="#DCEBFF" opacity="0.94">进衢年级成长表彰暨九年级入境仪式 · 2026.7.6</text>

  <g opacity="0.96">
    <rect x="930" y="1788" width="1140" height="78" rx="39" fill="#FFFFFF" opacity="0.12" stroke="#FFFFFF" stroke-opacity="0.28"/>
    <text x="1500" y="1840" text-anchor="middle" class="note" font-size="34" fill="#F7FBFF">在一颗星星上写下姓名，留下奔赴九年级的第一道光</text>
  </g>

  <text x="1500" y="1934" text-anchor="middle" class="note" font-size="25" fill="#AFC7EF" opacity="0.78">签名位约 120 个 · 建议使用黑色油性马克笔</text>
</svg>
